<?xml version="1.0" encoding="UTF-8"?>
<svg id="Layer_2" data-name="Layer 2" xmlns="http://www.w3.org/2000/svg" xmlns:xlink="http://www.w3.org/1999/xlink" viewBox="0 0 3000 1500">
  <defs>
    <style>
      .cls-1 {
        fill: none;
      }

      .cls-2 {
        clip-path: url(#clippath);
      }
    </style>
    <clipPath id="clippath">
      <path class="cls-1" d="m51.4,0C34.36,11.44,17.21,22.76,0,33.96v-2.36C16.01,21.17,31.98,10.63,47.86,0h3.54Zm38.71,0c-18.07,12.55-35.57,25.94-53.31,39C24.62,47.97,12.32,56.79,0,65.57v2.37c12.65-9.02,25.27-18.07,37.8-27.25C56.4,27.09,74.67,13.05,93.61,0h-3.5Zm54.81,0c-32.44,22.96-63.41,47.97-95.36,71.65-9.72,7.2-19.33,12.62-29.82,18.31-7.26,3.93-13.99,11.26-19.74,17.75v3.09c6.97-7.58,15.01-16.94,23.64-20.24,10.1-3.84,18.21-10.8,26.92-17.2C83.41,49.21,115.1,23.48,148.4,0h-3.48Zm39.76,0C118.96,44.59,57.12,94.59,0,149.77v2.76C58.1,96.23,121.13,45.29,188.19,0h-3.52Zm49.07,0c-20.57,14.04-40.99,28.3-61.06,43.04-28.39,20.87-55.04,43.91-82.29,66.23C56.2,137.31,27.54,170.27,0,204.36v2.95c26.92-33.51,54.89-66.01,88.17-93.65C136.6,73.43,186.13,35.76,237.62,0h-3.87Zm36.78,0c-58.67,39.38-115.53,82.23-166.44,131.15C65.07,168.63,31.76,210.98,0,254.55v3.51c31.32-42.96,64.06-84.77,102.11-122.23C154.05,84.68,213.28,40.52,274.02,0h-3.49Zm47.7,0c-30.24,20.06-60.35,40.3-89.51,61.91-40.15,29.78-76.71,63.26-111.26,99.39-32.59,34.08-60.89,70.74-85.14,111.23-10.45,17.44-21,34.9-32.32,51.77v3.57c9.5-14.01,18.43-28.44,27.2-42.97,25.91-42.96,54.18-82.3,88.55-118.92,35.13-37.45,72.89-71.6,113.98-102.37,29.87-22.35,60.91-43.05,92.03-63.62h-3.52Zm39.78,0c-35.77,25.1-71.74,49.88-106.16,76.83-11.91,9.33-24.53,23.66-38.74,28.97-8.36,3.11-16.64,13.52-23.2,19.37-20.44,18.24-39.44,38.02-57.34,58.77-32.85,38.09-60.8,80.15-86.44,123.38-6.72,11.33-14.95,20.55-21.42,32.04-6.46,11.5-14.59,20.96-21.69,31.86-.99,1.54-2,3.05-3.01,4.57v3.44c5.32-7.71,10.55-15.44,17.25-22.17,2.81-2.82,4.93-9.2,6.91-12.73,4.23-7.52,7.97-15.41,14.11-21.57,7.93-7.97,12.84-20.02,18.68-29.63,6.77-11.17,13.81-22.17,21-33.07,15.59-23.65,32.45-46.45,50.54-68.23,16.48-19.88,34.31-38.59,53.06-56.3,18.9-17.85,39.95-31.58,60.01-47.95,38.37-31.31,79.3-59.19,119.82-87.57h-3.36Zm36.55,0c-89.55,58.7-175.87,122.31-245.6,204.74-35.6,42.05-62.88,89.38-91.81,136.08-17,27.45-35.4,54.04-57.15,77.32v3.05c57.6-60.45,91.88-143.37,144.46-207.96C215.03,126.54,305.3,60.63,398.14,0h-3.58Zm49.61,0c-45.59,29.16-90.48,59.2-134.03,91.49-25.17,18.66-49.77,36.88-71.13,59.97-9.78,10.57-22.13,19.19-31.3,30.08-3.14,3.72-4.99,8.75-7.04,13.12-4.41,9.35-11.79,16.16-18.59,23.73-21.5,23.93-40.08,49.39-56.59,76.93-15.75,26.24-30.47,53.09-46.67,79.07-16.72,26.82-35.53,52.23-57.84,74.66-6.61,6.64-13.66,12.32-20.98,17.48v2.8c5.53-3.87,10.9-8.04,15.99-12.73,21.31-19.62,39.12-42.76,55.23-66.77,16.93-25.24,31.66-51.93,46.95-78.19,17.54-30.14,36.74-57.65,59.01-84.5,8.69-10.47,19.02-19.19,25.19-31.48,3.4-6.76,6.12-12.88,11.95-18.03,6.82-6.03,13.65-11.71,20.01-18.27,10.4-10.74,20.08-21.99,31.54-31.65,14.48-12.22,30.06-23.23,45.27-34.5C355.58,60.31,401.35,29.71,447.86,0h-3.69Zm438.34,0c-34.11,61.17-61.52,125.83-80.42,193.43-21.97,78.61-33.57,159.73-55.9,238.26-21.39,75.22-50.93,152.41-97.45,215.65-47.58,64.68-107.15,116.94-173.18,161.96-76.28,52-159.54,91.62-244.33,127.39-43.72,18.43-88.12,34.89-134.35,45.85-31.9,7.54-64.31,12.67-96.89,16.24v1.78c61.98-7.18,122.76-20.09,181.79-41.97,72.53-26.88,143.95-59.33,211.7-96.68,131.87-72.76,252.65-172,312.91-313.81,18.59-43.75,34.59-88.81,46.9-134.74,13.09-48.88,22.44-98.68,33.29-148.09,20.52-93.49,51.99-181.96,98.25-265.28h-2.33Zm35.51,0c-36.69,52.88-65.15,111.9-84.05,173.4-5.61,18.28-11.3,36.51-16.12,55.02-5.41,20.83-8.41,42.08-13.67,62.93-4.85,19.19-9.53,38.41-13.39,57.84-1.72,8.68-2.83,15.64-7.29,23.28-3.72,6.41-3.98,17.76-5.64,25.01-17.25,75.43-45.96,147.2-84.67,214.07-8.61,14.85-17.12,29.81-26.1,44.45-10.67,17.41-25.37,31.52-37.84,47.57-22.57,29.04-51.04,54.55-79.21,77.98-20.35,16.94-41.82,32.47-63.82,47.15-11.19,7.47-22.62,14.6-34.13,21.58-5.18,3.12-10.4,6.18-15.62,9.23-5.67,3.3-10.1,9.2-16.05,12.65-47.76,27.66-96.79,53.12-147.39,75.15-50.17,21.85-102.04,39.62-155.04,53.1-14.38,3.64-30.68,9.38-45.58,9.38-12.77,0-24.74,4.1-37.23,6.74-11.64,2.44-23.39,4.37-35.18,5.86v1.81c19.95-2.59,39.74-6.27,59.39-11.23,8.81-2.22,18.15-1.27,27.14-3.18,9.19-1.98,18.34-4.12,27.47-6.35,19.43-4.73,38.68-10.23,57.8-16.18,71.14-22.12,139.24-53.05,204.82-88.31,16.45-8.86,32.71-18.06,48.89-27.44,7.23-4.18,12.49-10.57,19.81-14.87,9.07-5.34,18.03-10.86,26.92-16.48,30.04-18.97,58.8-39.94,85.97-62.84,28.31-23.86,55.24-50.17,77.98-79.45,9.91-12.76,21.37-23.73,30.35-37.27,10.23-15.44,18.99-32.06,28.37-48.03,27.56-47,49.89-96.86,66.76-148.7,8.98-27.59,16.11-55.76,22.14-84.13,1.1-5.15,2.98-8.63,5.57-13.09,2.5-4.3,2.39-12.05,3.32-16.92,3.08-16.18,6.99-32.18,10.96-48.16,7.14-28.71,11.91-57.86,19.83-86.4,7.98-28.8,17.19-57.28,28-85.13,17.84-45.93,40.88-89.66,68.97-130.02h-2.42Zm27.55,0c-84.29,109.68-110.15,248.1-144.92,379.97-19.27,73.13-42.08,145.53-76.93,212.84-35.74,69.04-85.74,131.04-142.44,183.87-10.5,9.79-21.65,18.8-33.38,27.08-9.98,7.03-20.38,11.91-29.2,20.39-21.32,20.46-45.73,37.43-70.55,53.27-50.32,32.1-104.66,59.47-159.3,83.35-91.89,40.16-189.39,66.67-288.85,78v2.02c58.8-6.69,116.88-18.65,173.73-35.64,76.14-22.76,147.23-55.86,217.46-92.73,34.79-18.26,68.52-38.48,99.9-62.28,14.64-11.08,27.39-26.29,43.27-35.4,15.06-8.62,28.81-19.46,41.87-30.84,55.85-48.65,104.22-109.67,140.58-174.14,55.02-97.6,80.44-207.95,107.83-315.64,26.56-104.44,57.13-208.45,123.45-294.13h-2.5Zm27.76,0c-89.48,109.7-121.08,251.97-157.7,386.4-21.57,79.22-47.58,156.66-86.91,228.97-38.19,70.23-92.36,131.95-151.69,185-82.75,74.02-179.92,133.38-280.54,179.4-54.24,24.81-111.59,40.38-169.4,54.23-41.91,10.01-84.34,17.45-127.1,22.17v1.93c62.67-7.08,124.39-20.22,185.45-36.84,76.55-20.82,147.93-54.05,216.54-93.68,132.03-76.22,256.79-179.44,330.69-315.33,55.94-102.86,81.68-216.66,112.65-328.65,27.93-100.95,63.72-202.15,130.58-283.58h-2.56Zm34.36,0c-16.55,18.08-31.97,37.14-46.01,57.34-10.53,15.14-18.47,34.63-31.43,47.64-11.25,11.29-17.41,32.36-23.42,46.99-30.19,73.36-45.5,151.33-65.15,227.89-20.05,78.09-46.56,156.86-85.27,227.71-36.19,66.23-83.94,127.16-137.2,180.3-45.07,44.95-95.56,84.69-147.79,120.88-52.18,36.16-108.43,66.26-166.86,90.9-96.91,40.89-200.16,65.16-304.56,76.36v2c123.72-13.4,245.19-45.39,357.41-100.24,33.23-16.24,65.37-34.69,96.4-54.84,15.08-9.79,29.79-20.12,44.25-30.81,14.64-10.82,30.2-28.2,47.14-34.52,5.03-1.88,9.23-8.13,12.99-11.7,6.8-6.47,13.87-12.64,20.94-18.8,15.27-13.31,30.26-26.66,44.62-40.97,24.96-24.9,48.06-51.62,69.54-79.59,39.54-51.45,72.85-107.18,97.74-167.19,26.93-64.94,46.4-132.62,62.98-200.85,16.39-67.48,32.25-135.24,60.34-199.01,3.26-7.4,6.78-14.7,10.36-21.95,3.93-7.93,10.43-13.18,14.62-20.69,8.12-14.53,17.11-28.53,26.61-42.18,13.41-19.31,28.38-37.45,44.35-54.68h-2.59Zm26.92,0c-18.08,17.92-35.4,36.57-51.23,56.59-22.72,28.71-40.82,61.06-57.75,93.45-8.27,15.8-13.08,33.35-18.41,50.29-6.48,20.59-13.81,41.21-18.91,62.19-9.38,38.47-18.74,76.93-29.02,115.16-20.9,77.67-46.63,154.06-83.25,225.79-34.18,66.94-79.53,128.87-131.57,182.87-20.55,21.31-42.54,41.16-65.43,59.89-5.56,4.57-9.35,9.91-13.78,15.53-5.54,7.01-15.11,12.4-22.21,17.82-12.84,9.76-25.69,19.56-38.66,29.17-53.17,39.38-111.74,73.51-172.19,100.46-104.97,46.78-217.97,73.9-332.2,84.57v1.98c139.02-13.06,275.22-50.64,398.25-118.07,35.85-19.65,70.2-40.26,103.26-64.4,15.65-11.43,31.01-23.24,46.43-34.96,6.39-4.86,13.32-9.23,18.74-15.18,6.92-7.62,12.72-14.6,20.73-21.24,55.35-45.83,103.23-99.99,143.66-159.39,73.78-108.4,112.72-233.08,144.36-359.24,16.87-67.3,31.04-138.56,66.9-198.64,16.75-28.08,32.35-54.92,53.45-80.18,13.01-15.57,27.05-30.26,41.54-44.47h-2.7Zm-188.59,0c-29.54,63.45-49.34,130.77-67.26,198.41-10.5,39.59-18.44,79.8-26.21,119.99-7.8,40.49-14.12,81.81-25.66,121.44-22.43,76.97-53.65,149.55-102.77,213.16-42.81,55.43-96.4,101.36-154.7,139.63-76.68,50.36-162.56,87.08-246.14,124.14-21.35,9.47-42.72,18.87-64.07,28.35-22.31,9.91-48.67,13.43-72.41,18.9-28.73,6.62-57.64,12.55-86.8,16.65v1.98c21.06-2.98,41.99-6.86,62.84-11.28,19.63-4.15,39.16-8.84,58.69-13.45,9.77-2.32,19.52-4.61,29.28-6.91,9.23-2.12,19.01-8.42,27.7-12.28,77.08-34.13,154.34-67.87,228.86-107.42,122.21-64.82,232.41-162.23,286.66-292.48,18.31-43.97,34.19-89.99,44.03-136.63,10.22-48.39,18.6-97.14,28.93-145.52,18.61-87.12,43.02-175.72,81.18-256.66h-2.14Zm-355.43,0c-19.69,10.89-39.53,21.52-58.42,33.7-30.92,19.93-60.84,41.98-89.5,65-28.41,22.83-56.95,43.91-83.29,69.27-24.18,23.25-46.57,48.34-66.77,75.14-38.56,51.15-66.03,109.85-102.69,162.38-25.17,36.07-54.63,69.26-89.93,94.56v2.52c28.72-20.27,53.7-45.79,75.43-74.07,39.39-51.29,67.75-109.31,103.6-162.88,42.31-63.23,97.61-113.5,157.38-159.5,30.36-23.36,60.63-46.67,92.54-67.94,21.07-14.04,43.51-25.9,65.7-38.18h-4.04Zm576.99,0c-20.8,18.42-41.04,36.96-58.62,59.29-22.26,28.28-40.72,59.42-56.96,91.52-34.56,68.32-51.56,142.54-70.76,216.2-18.63,71.45-40.6,142.2-70.92,209.61-14.78,32.85-31.86,64.62-51.09,95.07-9.38,14.85-19.46,29.25-29.95,43.31-6.18,8.28-12.63,16.33-19.2,24.29-5.17,6.29-8.58,14.69-13.8,20.54-89.3,100.23-190.1,192.81-311.33,252.33-30.62,15.02-62.45,27.47-94.98,37.6-16.08,5.03-32.37,9.23-48.78,12.97-16.76,3.81-31.75,6.3-47.03,14.41-17.43,9.28-41.12,10.86-60.3,14.77-20,4.05-40.06,7.74-60.17,11.16-24.48,4.15-49.05,7.74-73.68,10.79v1.95c21.45-2.68,42.86-5.74,64.21-9.18,41.03-6.64,84.42-12.38,124.19-24.73,5.85-1.81,11.23-5.49,16.66-8.23,8.72-4.37,18.89-5.27,28.31-7.2,17.89-3.71,35.61-8.35,53.12-13.58,31.58-9.38,62.3-21.51,92.12-35.5,122.24-57.37,223.75-150.46,313.5-249.98,10.5-11.63,17.99-24.86,27.82-37.15,11.09-13.85,21.49-28.27,31.44-42.97,20.23-29.88,37.74-61.55,53.38-94.07,30.74-63.97,52.76-131.81,71.53-200.15,20.83-75.73,35.97-153.38,69.46-224.91,15.9-33.98,34.59-66.61,56.65-96.95,19.82-27.3,43.22-49.38,67.95-71.22h-2.78Zm27.14,0c-41.6,33.67-76.78,74.5-105.32,120.16-17.7,28.33-32.35,58.52-44.74,89.54-15.19,38.04-21.51,79.19-30.71,118.92-2.22,9.6-4.71,19.12-7.38,28.59-1.56,5.53-3.48,10.7-6.65,15.53-.95,1.44-3.17,4.77-3.5,6.57-1.35,7.55-.64,15.15-2.3,22.76-2.56,11.93-7.81,23.34-12.65,34.45-14.74,33.91-23.46,70.81-36.9,105.39-29.38,75.63-68.09,145.97-119.82,208.47-22.22,26.84-46.18,52.18-70.66,76.92-11.83,11.94-23.85,23.7-35.9,35.4-6.69,6.5-13.39,12.97-20.1,19.43-5.14,4.95-12.5,7.06-17.29,11.82-25.78,25.71-53.45,49.19-82.71,70.8-29.46,21.75-60.52,43.75-93.51,59.69-127.26,61.52-265.24,90.87-404.56,108.23v1.98c62-7.72,123.69-17.77,184.63-31.81,79.85-18.39,156.34-44.95,229.93-81.08,33.61-16.48,65.47-40.82,95.28-63.33,28.45-21.51,53.2-48.8,82.65-68.19,6.21-4.1,11.71-11.26,17.06-16.43,6.66-6.44,13.31-12.89,19.92-19.36,14.15-13.79,28.12-27.76,41.87-41.97,26.48-27.32,51.68-55.84,75-85.94,42.93-55.44,74.47-118.98,100.12-184.11,14.12-35.89,23.28-74.01,38.61-109.3,5.82-13.38,12.7-28.31,12.7-43.16,0-5.84.74-11.2,3.85-16.22,1-1.62,3.44-4.71,4-6.57,2.89-9.42,5.5-18.9,7.92-28.45,9.68-38.36,15.89-77.48,28.2-115.16,10.85-33.27,27.26-65.3,45.05-95.3,29.08-49.07,66.62-92.81,111.05-128.26h-3.11Zm39.63,0c-45.08,33.07-85.17,72.12-117.54,118.37-21.78,31.09-38.82,69.21-50.68,105.16-12.96,39.24-23.45,78.88-34.07,118.81-10.6,39.77-21.96,79.34-34.86,118.41-6.18,18.75-12.85,37.33-19.91,55.76-3.54,9.27-7.26,18.44-11.06,27.61-4.28,10.38-6.2,21.05-11.23,31.29-18.19,37.01-33.75,76.28-56.28,110.86-10.98,16.86-21.32,35.33-34.34,50.64-12.09,14.23-24.27,28.38-36.53,42.46-90.76,104-190.31,203.49-314.12,267.11-70.23,36.08-147.81,57.74-224.36,75.61-62.45,14.58-125.77,25.05-189.37,33.23v1.93c62.12-8.01,123.94-18.28,185.07-32.15,75.77-17.16,152.06-38.82,222.07-73.09,126.27-61.84,227.48-163.38,319.27-267.99,11.36-12.97,22.6-26.03,33.78-39.12,11.24-13.16,20.15-27.28,29.72-41.7,10.96-16.54,21.3-32.76,30.02-50.61,9.45-19.31,18.66-38.76,28-58.12,4.38-9.08,8.8-18.14,13.27-27.19,3.16-6.42,2.83-11.31,5.01-18.03,6.57-20.26,16.07-39.89,23.28-60,13.88-38.67,25.66-78.09,36.67-117.68,11.15-40.04,20.46-80.57,33.01-120.19,12.7-40.07,28.31-77.92,48.9-114.6,30.78-54.82,78.17-100.02,129.41-136.78h-3.11Zm29.63,0c-.92.66-1.78,1.34-2.5,2.06-12.88,12.94-29.2,22.22-43.44,33.64-13.48,10.82-26.01,22.74-37.99,35.18-6.24,6.47-12.18,13.22-18.05,20.02-5.98,6.92-9.91,15.21-16.12,21.99-9.98,10.86-16.08,26.53-23.54,39.22-10.45,17.78-19.37,36.45-27.45,55.43-14.5,34.06-25.12,69.66-34.95,105.32-10.34,37.54-19.72,75.32-31.14,112.55-5.44,17.76-12.51,34.79-17.82,52.57-6.04,20.25-15.36,40.35-19.99,60.83-4.55,20.14-14.05,38.9-22.64,57.63-8.95,19.51-18.54,38.71-28.42,57.76-19.35,37.33-39.02,74.02-65.74,106.63-24.52,29.93-52.31,57.42-79.3,85.11-27.92,28.64-56.44,56.64-85.6,84.01-30.87,28.98-62.31,56.81-96.05,82.38-15.23,11.55-30.76,22.66-46.97,32.76-7.51,4.71-15.26,10.5-24.31,11.01-5.61.32-14.5,8.74-19.47,11.57-17.56,9.96-36.77,16.73-55.68,23.56-19.32,6.98-38.17,15.26-57.85,21.14-39.23,11.74-80.49,17.85-120.49,26.44-62.59,13.5-125.33,26.27-188.49,36.7v1.98c63.33-10.45,126.24-23.27,189.01-36.74,40.1-8.62,81.01-15.26,120.5-26.47,18.27-5.17,35.63-13.06,53.45-19.55,17.62-6.4,35.22-12.75,52.11-20.93,8.73-4.25,16.99-9.27,25.01-14.69,3.28-2.22,4.77-.54,7.9-1.39,1.66-.47,5.92-3.08,6.86-3.59,18.14-9.99,35.11-22.02,51.73-34.33,31.63-23.39,61.01-48.63,89.95-75.29,29.44-27.1,58.13-55.03,86.29-83.45,28.39-28.69,57.59-57.37,83.78-88.11,51.28-60.21,86.53-134.71,117.47-207.13,6.86-16.08,10.61-32.95,16.79-49.3,7.64-20.18,11.86-41.53,20.01-61.51,14.4-35.29,22.81-73.61,32.58-110.39,9.86-37.14,19.96-74.22,33.06-110.37,6.89-19,14.9-37.57,23.84-55.7,8.64-17.54,19.68-33.72,28.21-51.27,3.45-7.12,9.02-12.2,13.44-18.57,5.58-8.03,10.92-15.92,17.39-23.29,12.5-14.23,25.97-27.55,40.18-40.04,18.97-16.65,39.54-31.82,60.99-45.39h-6.57Zm1745.75,1500c27.66-37.06,55.4-74.73,90.26-104.66v-2.57c-35.94,30.52-64.31,69.22-92.7,107.23h2.44Zm-1819.91-517.85c53.97,50.73,121.45,87.99,188.14,118.8,70.57,32.59,148.68,42.97,225.45,48.41,40.39,2.86,80.85,4.27,121.25,6.84,38.99,2.47,78.08,5.15,115.72,16.28,65.9,19.48,122.02,61.82,172.46,107.27,25.12,22.66,49.12,46.53,73.32,70.19,12.16,11.87,24.12,23.97,37.16,34.86,15.7,13.16,32.35,25.41,45.31,41.16,7.06,8.52,17.82,15.11,26.44,22.04,10.84,8.72,21.7,17.46,32.55,26.17,10.62,8.57,21.19,17.21,31.81,25.81h3.12c-24.71-20.05-49.44-40.01-74.24-59.94-14.38-11.55-25.78-24.98-39.94-36.84-15.74-13.18-31.44-26.19-46.22-40.48-47.41-45.8-93.36-93.48-146.53-132.69-52.81-38.96-111.89-64.67-177.32-71.48-80.49-8.35-161.66-7.55-242.02-17.58-41.46-5.15-82.46-13.86-122.03-27.47-37.44-12.84-73.36-31.76-107.8-51.17-34.35-19.36-67.02-41.62-97.59-66.55-31.76-25.93-53.93-57.54-64.09-97.8-21.24-84.2,46.83-153.39,94.53-212.85,50.36-62.77,98.12-127.59,146.09-192.2,12.01-16.17,24.05-32.35,36.12-48.47,6.97-9.3,14.06-18.1,22.28-26.36,6.34-6.36,13.56-12.28,18.13-20.1,9.5-16.26,25.54-29.54,38.74-42.93,15.5-15.74,31.8-29.72,49.3-43.14,15.38-11.79,29.82-24.05,46.4-34.2,17.94-10.99,36.67-20.65,55.64-29.71,38.55-18.42,78.86-31.04,119.7-43.21,78.3-23.32,157.86-41.93,235.55-67.34,35.25-11.52,69.77-25.04,102.51-42.6,22.9-12.28,56.35-28.81,34.89-57.98-11.16-15.15-29.71-23.28-46.66-29.8-5.96-2.29-11.86-4.67-17.77-7.09h-7.33c.66.28,1.34.59,2,.87,18.46,7.73,37.42,12.58,54.15,24,9.35,6.36,20.34,17.14,21.24,29.11,1.12,14.97-14.11,23.07-24.9,29.68-17.43,10.65-35.79,19.69-54.47,27.92-74.32,32.69-154.69,50.83-232.67,72.25-40.06,11-79.98,22.55-119.51,35.35-36.94,11.95-72.12,28.03-106.13,46.81-33.52,18.52-64.87,42.48-93.24,68.22-13.84,12.55-26.7,26.15-39.68,39.56-13.45,13.88-23.71,29.3-37.31,42.95-27.95,28.07-49.91,63.37-73.51,95.17-24.39,32.85-48.79,65.67-73.57,98.23-25.91,34.06-52.36,67.74-79.47,100.84-23.01,28.1-45.76,55.71-61.12,89.01-28.29,61.38-14.39,135.67,35.08,182.18ZM1212.18,0c-6.3,3.62-11.44,7.49-16.54,12.62-7.97,8.02-20.45,13.3-29.78,19.72-30.39,20.86-57.2,46.59-83.19,72.63-4.69,4.69-6.89,12.14-11.5,17.34-4.75,5.36-11.07,11.21-14.94,17.16-10.05,15.5-21.01,29.53-29.15,46.29-16.43,33.82-25.89,70.99-36.05,107.03-22.38,79.42-43.2,159.28-69.14,237.62-13.44,40.57-28.48,80.61-45.56,119.8-2.01,4.61-4.21,15.78-6.66,19.64-4.86,7.64-8.52,16.35-13.04,24.23-10.69,18.69-23.06,36.39-36.33,53.32-22.86,29.15-50.38,54.61-75.7,81.61-24.54,26.15-48.79,52.57-73.52,78.54-49.77,52.25-102.01,102.42-161.44,143.56-30.04,20.8-61.46,37.77-94.84,52.39-18.59,8.16-36.71,14.26-56.25,19.66-9.18,2.54-18.38,4.93-27.64,7.23-8.53,2.1-20.69,2.3-28.45,6.15-18.42,9.2-38.31,11.99-58.29,16.19-21.38,4.51-42.74,9.1-64.07,13.74-40.65,8.89-81.21,18.11-121.69,27.71-9.78,2.32-19.56,4.66-29.33,7.03-9.22,2.25-19.47,1.22-29.08,2.37v1.88c8.08-1.3,16.2-1.64,24.44-1.1,8.7.54,21.07-5.08,29.61-7.11,40.47-9.67,81.04-18.87,121.68-27.81,19.66-4.32,39.34-8.52,59.03-12.72,19.04-4.03,40.83-5.78,58.67-13.72,17.7-7.89,37.71-10.47,56.43-15.45,18.29-4.83,36.72-9.35,54.09-16.97,33.53-14.7,65.3-30.47,96.06-50.61,28.5-18.65,55.31-39.82,81.01-62.16,53.72-46.7,101.76-99.56,150.22-151.61,24.83-26.64,51.23-52.08,75.37-79.33,24.67-27.83,45.59-58.9,62.71-91.93,2.4-4.65,4.27-7.59,4.78-12.76.95-9.56,8.04-20.41,11.74-29.21,7.7-18.31,14.84-36.84,21.71-55.48,14.21-38.55,26.62-77.76,38.35-117.14,23.43-78.6,40.89-159.68,68.3-236.98,6.42-18.1,13.44-35.85,22.98-52.55,9.62-16.84,22.94-32.38,35.37-47.12,3.66-4.33,7.15-7.19,9.12-12.5,3.42-9.23,15.32-17.72,22.26-24.43,15.33-14.79,31.31-28.89,48.14-41.94,15.12-11.72,34.19-20.02,47.58-33.47,4.33-4.34,9.4-8.06,14.88-11.38h-2.37Zm-129.6,1018.17c58.91,49.95,132.38,85.38,202.54,116.4,35.97,15.9,73.09,28.18,111.74,35.52,38.67,7.35,78.15,9.81,117.39,11.74,80,3.96,161.72,4.93,237.47,34.21,36.6,14.13,67.09,36.57,98.34,59.76,32.62,24.19,65.04,48.66,94.12,77.12,26.71,26.17,54.88,49.19,84.64,71.73,32.23,24.42,63.6,49.98,95.07,75.34h3.08c-24.98-20.07-49.95-40.11-75.05-60.01-30.15-23.9-61.91-45.77-90.04-72.14-27.54-25.85-54.4-51.08-84.47-74.02-30.08-22.95-60.03-47.29-93.43-65.18-65.99-35.33-142.24-42.46-215.62-46.27-83.69-4.34-166.91-6.03-246.61-35.08-39.34-14.33-76.83-33.42-114.04-52.54-35.13-18.07-69.54-37.38-101.57-60.62-61.4-44.58-117.49-107.93-115.99-188.33.79-42.43,20.81-77.55,48.59-108.16,27.6-30.41,57.26-59.02,85.59-88.76,55.46-58.21,101.6-123.13,147.79-188.76,46.7-66.38,100.47-127.16,164.27-177.52,65.02-51.33,141.06-78.84,219.31-102.79,74.54-22.8,151.63-40.68,223.07-72.34,23.93-10.61,53.47-26.01,57.13-54.94,2.93-23.13-21.12-40.34-41.33-52.53h-4.61c2.69,1.72,5.4,3.44,8.08,5.25,18.87,12.77,40.58,27.83,34.77,53.73-4.27,19.03-24.34,31.01-40.11,39.55-17.12,9.29-35.69,16.52-53.88,23.43-37.64,14.3-77.37,24.22-115.94,35.7-40.28,11.99-80.64,23.82-120.56,36.99-71.39,23.53-135.61,58.24-192.65,107.49-59.75,51.59-108.18,112.32-153.17,176.88-48.28,69.26-99.9,133.9-158.64,194.53-26.32,27.17-55.77,53.36-78.36,83.85-20.25,27.35-30.76,58.6-31.4,92.69-1.29,69.31,44.52,125.68,94.48,168.07ZM1263.15,0c-92.31,42.32-174.97,107.9-218.35,202.09-14.94,32.45-22.85,67.6-32.06,101.98-10.74,40.09-21.28,80.24-32.12,120.29-21.63,79.85-44.85,159.29-73.14,237.04-7.23,19.86-13.98,39.99-25.29,57.93-11.99,19.03-26.12,37.49-40.81,54.47-12.01,13.88-25.3,26.65-38.64,39.22-14.66,13.84-28.87,28.95-44.48,41.67-62.58,51-115.96,113.04-175.26,167.82-29.86,27.56-60.78,53.71-94.68,76.17-33.85,22.41-71.22,34.06-109.73,45.58-40.05,11.99-79.57,24-120.7,31.72-40.86,7.66-81.98,13.72-122.35,23.78-33.88,8.47-67.42,18.46-101.07,27.73-11.39,3.12-22.95,6.23-34.47,9.52v1.73c21.18-6.13,42.65-11.45,63.62-17.26,40.15-11.13,80.14-22.53,121.08-30.4,41.26-7.93,82.85-13.99,123.77-23.71,39.05-9.25,78.18-22.92,116.33-35.42,70.64-23.15,128.07-77.83,180.96-128.05,29.38-27.93,57.84-56.79,86.52-85.42,28.54-28.47,59.13-54.23,88.26-81.93,26.97-25.68,54.64-50.32,77.42-79.98,11.82-15.39,23.7-31.29,33.07-48.33,9.48-17.25,15.11-37.3,21.78-55.76,28.06-77.77,50.75-157.37,72.3-237.16,10.84-40.11,21.37-80.3,32.13-120.43,9.73-36.28,18.99-72.02,35.97-105.73,29.65-58.86,77.4-106.57,131.35-143.3,26.17-17.81,54.1-32.95,82.99-45.86h-4.4ZM291.83,1439.58c65.11-1,130.02-7.76,194.8,2.25,30.73,4.71,59.1,15.06,86.95,28.76,18.07,8.89,35.67,18.31,52.22,29.42h3.23c-13.41-9.08-27.53-17.07-42.11-24.81-24.49-12.96-49.83-24.05-76.71-30.93-60.77-15.5-125.39-9.86-187.27-7.54-32.4,1.22-64.86,2.05-97.15-1.25-33.52-3.44-66.69-9.86-99.38-17.97-43.07-10.69-85.14-25.03-126.43-41.33v2.02c93.37,36.62,190.79,62.97,291.83,61.38ZM3000,364.62c-28.76-4.61-57.27-11-86.11-15.27-15.09-2.23-29.05-7.79-44.17-10.98-19.6-4.15-38.97-9.32-58.16-15.08-78.93-23.72-153.39-62.68-227.56-98.2-37.13-17.78-74.39-35.38-112.13-51.82-36.28-15.8-73.54-29.18-109.82-44.93-16.68-7.25-33.06-15.14-49.17-23.57-8.27-4.33-16.43-8.95-24.51-13.65-9.69-5.64-23.85-11.74-30.47-21.08-13.79-19.55,10.84-35.89,24.71-44.16,16.92-10.07,35.55-16.99,54.25-22.85,3.34-1.05,6.72-2.05,10.11-3.02h-6.76c-3.98,1.17-7.93,2.38-11.89,3.66-14.84,4.84-29.2,10.97-42.97,18.38-9.74,5.26-25.49,12.32-29.78,23.52-11.21,29.1,19.31,40.15,39.99,51.97,31.76,18.15,65.31,32.94,99.22,46.55,77.54,31.09,152.88,65.88,228.27,101.88,71,33.9,142.36,67.99,218.73,87.85,7.55,1.95,15.16,3.73,22.78,5.44,8.54,1.93,19.95,2.15,27.54,6.62,11.87,6.96,27.08,6.16,40.53,8.47,22.51,3.86,44.87,8.57,67.38,12.21v-1.93ZM793.13,0c-1.3,12.93-2.86,25.73-6.03,38.6-5.2,21.11-10.9,42.08-16.42,63.1-10.38,39.48-18.85,79.08-25.62,119.32-12.52,74.38-23.7,149.12-44.18,221.83-20.9,74.18-52.7,146.27-101.2,206.49-41.44,51.45-94.13,92.26-150.35,126.17-70.89,42.75-147.63,74.56-222.42,109.57-9.39,4.4-18.73,8.86-28.05,13.38-9.73,4.71-22.96,14.4-33.84,14.99-9.91.54-20.03,6.76-29.28,10.18-12.01,4.44-24.27,8.2-36.57,11.72-32.47,9.28-65.72,15.43-99.16,20.24v1.88c19.36-2.81,38.66-6.05,57.85-10.01,18.76-3.88,37.3-8.69,55.63-14.28,9.19-2.78,18.27-5.98,27.3-9.3,4.53-1.69,8.99-3.49,13.47-5.3,4.65-1.88,9.53-1.88,14.06-3.34,13.28-4.35,25.93-12.38,38.53-18.43,15.17-7.32,30.47-14.43,45.77-21.46,29.44-13.58,59.01-26.88,88.33-40.72,115.5-54.59,228.69-122.62,296.29-235.27,54.23-90.39,78.22-193.8,96.14-296.67,9.42-54.07,16.78-108.55,29.48-161.96,6.53-27.44,14.06-54.64,21.17-81.93,3.37-12.98,7.68-26.27,9.38-39.59.82-6.38,1.38-12.79,1.92-19.2h-2.19Zm-233.06,0c-53.67,29.15-106.39,59.96-157.4,93.69-31.99,21.16-63.97,42.8-92.66,68.38-26.67,23.79-50.56,50.61-72.44,78.87-42.61,55.04-73.47,116.8-110.61,175.32-32.13,50.62-75.31,93.43-126.96,122.69v2.21c44.6-25.03,83.29-60.07,113.55-101.64,21.74-29.85,38.65-62.87,57.38-94.62,18.06-30.58,37.11-60.55,58.03-89.23,21.77-29.87,46.03-57.82,72.78-83.3,29.77-28.37,63.83-51.5,97.89-74.3C452.75,62.52,508.01,30.38,564.18,0h-4.11Zm769.31,0c-42.37,14.89-83.28,33.64-121.74,57.52-30.05,18.66-58.14,40.12-81.66,66.72-22.19,25.1-38.88,54.28-52.77,84.66-15.4,33.66-26.54,69.1-35.74,104.92-4.72,18.39-8.84,36.93-12.86,55.47-1.18,5.45-5.1,9.88-6.4,15.65-2.64,11.73-5.24,23.47-7.82,35.22-8.92,40.61-17.26,81.35-24.39,122.31-3.44,19.81-6.51,39.69-9.28,59.61-2.18,15.68-6.02,30.63-1.03,46.11.52,1.23,1.06,2.47,1.64,3.69.53,1.16,2.22.16,1.7-1-8.04-18.12-1.66-39.6,1.01-58.35,2.82-19.82,6.09-39.59,9.57-59.31,6.96-39.36,15.2-78.48,23.78-117.51,1.83-8.39,3.71-16.77,5.58-25.15,1.56-6.97,5.1-12.45,6.99-18.89,5.08-17.25,7.95-35.35,12.28-52.83,9.23-37.29,21.01-73.84,36.68-108.94,13.6-30.47,30.71-58.95,52.45-84.25,23.99-27.93,54.09-49.54,85.14-68.82,38.44-23.86,79.76-42.28,122.45-56.82h-5.58Zm479.99,0h-4.17c8.76,5.31,17.21,11.11,24.71,18.31,10.15,9.74,15.31,22.23,12.35,36.22-3.81,18.26-31.2,30.54-46.36,38.16-67.5,33.95-141.82,48.77-213.21,72.03-70.08,22.84-136.69,62.07-191.72,111.22-59.44,53.07-109.64,117.2-158.61,179.8-36.79,47.05-71.62,95.92-113.79,138.28-7.93,7.97-18.04,12.99-26.34,20.93-9.91,9.46-20.51,18.13-31.73,25.97-11.14,7.8-23.25,14.08-35.94,18.93-6.44,2.48-13.15,4.15-19.87,5.58-13.21,2.81-19.96-5.14-25.67-14.56-.65-1.09-2.36-.1-1.7,1,5.27,8.68,8.63,15.78,19.32,16.83,13.74,1.37,31.59-7.69,43.7-13.54,13.65-6.59,26.06-15.6,37.81-25.12,6.42-5.21,12.48-10.84,18.44-16.55,6.21-5.93,13.87-8.53,19.86-14.55,56.66-56.91,102.35-124.02,152.73-186.49,50.18-62.22,103.53-125.44,169.25-171.63,31.57-22.2,65.65-42.33,101.01-57.76,37.21-16.23,76.66-26.8,115.8-37.11,17.19-4.53,33.47-12.15,50.58-16.88,7.74-2.14,15.48-2.37,22.87-5.77,9.87-4.55,20.02-8.51,30.13-12.53,15.38-6.14,30.66-12.4,45.34-20.09,7.23-3.8,14.11-8.2,20.75-12.94,4.64-3.3,13.82-8.64,16.04-13.77,12.72-29.45-7.52-48.77-31.59-63.95Zm1190.62,9.79c-8.72-3.19-17.38-6.46-26.02-9.79h-5.45c10.45,4.05,20.92,8.05,31.47,11.89v-2.1Zm0,331.52c-64.58-9.15-128.2-24.08-189.92-45.54-36.91-12.83-73.36-28.04-108.18-45.86-15.92-8.14-30.83-18.15-46.75-26.34-17.87-9.18-36.62-16.92-54.93-25.16-67.67-30.44-134.94-61.59-194.8-106.11-43.94-32.69,5.69-67.86,36.62-82.51,7.84-3.72,15.82-6.92,23.9-9.78h-6.32c-4,1.54-7.96,3.19-11.86,4.97-22.63,10.3-50.78,23.13-59.84,48.6-10.99,30.95,26.66,48.4,47.92,62.43,32.11,21.19,66.33,38.97,101,55.54,34.57,16.53,69.8,31.69,104.59,47.78,34.43,15.92,66.31,36.34,101.08,51.84,71.39,31.82,147.05,53.52,223.92,66.98,11.16,1.95,22.34,3.68,33.57,5.24v-2.07Zm0-27.67c-6.89-1.16-13.77-2.32-20.63-3.54-9.86-1.74-19.7-3.66-29.52-5.71-9.18-1.92-20.53-7.03-29.81-7.07-20.17-.1-38.97-9.2-58.06-15.07-19.92-6.12-39.94-11.79-59.57-18.8-37.48-13.38-73.68-32.51-109.74-49.32-34.3-15.99-68.14-32.96-100.54-52.61-15.67-9.51-30.83-19.87-45.53-30.85-16.48-12.32-34.13-26.82-46.71-43.29-15.48-20.29.46-41.56,17.12-54.17,13.62-10.35,30.49-15.48,46.24-21.56,10.64-4.11,21.46-8.01,32.4-11.65h-5.93c-2.98,1.01-5.96,2.03-8.94,3.06-26.98,9.49-57.83,18.2-77.66,40.15-6.91,7.65-12.94,18.96-12.01,29.48,1.25,13.87,14.99,25.24,24.58,33.56,6.35,5.51,11.96,11.99,18.7,17.41,6.08,4.91,12.35,9.59,18.65,14.21,15.97,11.72,32.74,22.32,49.81,32.35,32.64,19.21,66.89,35.5,101.22,51.38,25.1,11.59,50.19,23.2,75.34,34.72,26.29,12.02,54.47,19.47,82.03,27.83,14.04,4.26,27.71,9.7,41.77,13.76,3.95,1.15,8.28,1.22,12.35,1.37,9.62.36,19.48,3.87,28.83,5.96,18.41,4.12,36.99,7.36,55.59,10.48v-2.07Zm0-273.99c-36.09-13.62-72.05-27.59-108.62-39.65h-5.42c38.45,12.48,76.22,27.35,114.04,41.7v-2.05Zm-1295.51-17.86c-10.25-9.6-22.07-15.78-35.23-20.41-1.39-.5-2.83-.94-4.25-1.38h-7.23c1.07.29,2.15.59,3.22.89,14.48,4.03,35.94,11.11,43.36,25.52,11.69,22.78-5.98,32.97-22.51,43.9-14.84,9.83-30.74,14.53-47.51,20.26-16.68,5.69-33.27,11.55-49.78,17.66-61.97,22.95-123.5,50.87-175.71,92.1-29.69,23.44-55.33,51.67-81.98,78.45-28.36,28.48-55.17,57.46-81.46,87.88-25.57,29.63-51.7,58.78-79.16,86.66-15.01,15.25-30.98,27.72-48.35,40.09-12.02,8.56-29.32,13.51-42,2.72-5.23-4.47-6.7-13.37-9.86-19.48-.44-67.93,4.24-136.4,23.66-201.81,9.67-32.52,23.68-63.64,41.92-92.21,9.27-14.53,19.97-28.06,31.51-40.82,12.45-13.77,26.6-23.95,40.95-35.49,31.81-25.56,71.34-42.03,109.29-56.26,36.02-13.5,73.24-23.67,110.63-32.54,27.32-6.49,54.83-12.11,82.38-17.53h-10.11c-71.02,14.12-142.48,30.02-209.36,58.41-17.03,7.23-33.69,15.15-50,23.9-17.5,9.39-31.66,21.27-47.91,32.47-24.89,17.18-45.07,44.88-61.21,70.18-34.19,53.56-50.5,116.61-58.21,179.16-4.61,37.38-5.76,75.12-5.52,112.76,0,.02.01.04.01.06,0,.04.03.08.03.11.02.11.05.21.08.3.01,0,.01.02.01.02,4.58,8.61,6.54,21.26,17.26,24.77,15.88,5.18,28.53-.66,41.36-9.79,15.03-10.7,28.27-21.06,41.36-34.11,15.06-15.03,29.6-30.58,43.92-46.31,27.25-29.93,51.78-63.18,80.35-91.78,30.21-30.24,60.33-60.56,90.49-90.85,54.53-54.72,126.75-88.89,197.9-116.04,16.45-6.29,33.08-12.16,49.73-17.92,8.3-2.87,16.6-5.69,24.93-8.51,5.91-2,16.31-3.39,21.14-7.24,7.84-6.24,16.28-11.49,24.66-16.94,7.94-5.19,6.2-4.19,10.47-12.36,1.27-2.42,5.4-7.98,4.42-11.23-1.49-4.86-4.3-14.09-7.69-17.27ZM126.56,474.68c23.75-28.7,39.74-64.2,58.86-96.06,19.58-32.6,39.89-64.78,61.9-95.8,47.28-66.64,103.35-122.11,172.31-165.86,34.9-22.13,71.06-42.45,107.51-61.88,18.65-9.94,37.28-21.2,57.08-28.65,17.85-6.71,36.84-16.12,55.51-19.74,9.24-1.79,17.48-5.2,27-6.42.89-.12,1.78-.19,2.68-.28h-7.55c-7.82,1.37-15.5,3.2-22.65,4.78-17.47,3.9-34.19,12.28-51.11,18.21-18.56,6.51-35.47,16.5-52.87,25.59-69.97,36.53-142,75.83-200.45,129.68-68.38,62.99-117.97,143.42-165.04,222.83-12.07,20.36-22.65,41.6-36.11,61.1-15.34,22.18-35.57,40.95-56.1,58.18-23.66,19.85-49.89,36.02-77.53,49.41v1.92c48.13-23.49,91.92-55.18,126.56-97.01ZM720.35,11.71c-6.17-6.04-13.17-9.69-20.64-11.71h-14.97c3.69.33,7.38.88,11,1.62,9.95,2.04,18.74,7.09,25.95,14.16,10.4,10.17,10.88,25,11.2,38.55,1.09,44.23-3.07,87.73-9.34,131.48-11.89,83.19-21.98,165.68-43.29,247.16-19.59,75-45.64,146.39-95.84,206.38-47.47,56.74-109.58,98.73-174.89,132.08-16.94,8.64-34.34,15.41-51.81,22.8-18.41,7.81-36.13,17.53-54.19,26.17-38.41,18.39-76.97,36.5-115.36,54.93-60.4,28.98-122.97,48.39-188.19,58.57v2.08c59.09-9.06,116.42-25.59,171.42-50.61,38.47-17.5,76.37-36.4,114.57-54.44,18.54-8.77,37.04-17.65,55.41-26.76,18.27-9.03,37.5-15.6,55.87-24.44,64.75-31.24,125.62-71.08,175.06-123.78,48.41-51.6,76.95-112.83,97.74-179.9,24.28-78.36,37.9-158.56,48.51-239.75,5.57-42.67,12.67-85.17,15.54-128.16,1.3-19.38,1.11-38.72.64-58.12-.36-15.05-3.46-27.62-14.41-38.33Zm2279.65,262.61c-68.29-11.41-137.62-26.15-200.44-54.49-16.38-7.4-33.62-12.5-49.71-20.69-17.01-8.65-33.2-19.94-49.27-30.27-15.58-10-30.71-20.68-45.09-32.36-13.79-11.21-41.23-31.35-42.55-50.61-2.59-38.35,48.63-54.38,77.61-62.64,40.67-11.58,85.64-11.29,126.88-2.93,63.67,12.89,122.46,41.77,182.57,65.92v-2.04c-60.04-23.94-118.56-52.15-182.03-65.8-35.74-7.68-73.44-7.76-109.38-1.34-28.71,5.14-63.06,16.36-85.31,36.35-8.62,7.77-11.25,17.43-12.13,28.53-1.27,15.87,10.52,25.38,20.8,35.89,24.15,24.68,53.32,43.91,82.4,62.11,65.6,41.03,140.55,65.36,215.65,82.49,23.19,5.28,46.56,9.75,70,13.78v-1.89Zm0-55.25c-40.72-4.55-81.27-10.62-120.85-21.62-26.27-7.3-51.76-17.3-75.88-30.1-10.99-5.85-21.51-12.56-31.72-19.71-13.21-9.28-31.71-21.31-37.13-37.27-6.11-18.1,10.11-31.12,24.66-36.51,11.45-4.25,23.93-4.37,35.96-3.71,29.37,1.64,58.15,9.13,85.79,18.85,41.31,14.53,80.03,35.24,119.17,54.82v-2.12c-45.61-22.67-90.65-46.64-139.55-61.46-27.08-8.19-57.81-14.8-86.18-11.77-16.16,1.73-41.26,10.92-42.51,30.61-1.64,26.21,26.71,42.11,45.68,55.03,25.07,17.05,52.98,29.53,81.57,39.22,45.48,15.43,93.26,22.58,140.99,27.78v-2.04Zm-2317.32-27.12c-.22-32.08,1.53-63.39-18.37-90.48-17.15-23.34-50.34-25.61-76.54-21.56-36.11,5.58-70.91,23.97-102.99,40.61-32.45,16.83-63.24,36.64-91.33,60.12-5.43,4.54-12.47,6.88-17.6,11.41-6.59,5.82-13.11,11.71-19.56,17.69-13.77,12.76-26.98,26.1-39.72,39.88-23.26,25.16-44.16,52.45-62.27,81.58-19.03,30.61-32.73,64.05-51.07,95.07-19.25,32.54-39.73,66.61-64.5,95.2-22.88,26.4-52.28,48.66-82.37,66.14-17.4,10.11-36.66,15.74-55.13,23.33-.41.17-.82.34-1.22.51v2.35c13.28-5.27,26.7-10.15,39.82-15.82,31.47-13.6,60.86-36.28,85.67-59.82,26.44-25.1,45.4-56.9,64.93-87.4,20.65-32.25,36.38-66.51,54.73-99.97,17.78-32.47,39.9-62.38,64.22-90.19,11.35-12.99,23.38-25.37,35.69-37.43,6.24-6.11,12.62-12.06,19.06-17.96,7.37-6.77,15.21-11.46,23.42-16.87,15.23-10.02,28.62-23.5,43.81-33.89,16.18-11.06,33.18-20.86,50.43-30.1,35.75-19.14,74.66-38.98,115.38-43.73,19.88-2.33,43.11,1.36,58.73,14.59,13.13,11.13,19.58,29.15,23.02,45.51,4.1,19.49,1.78,41.69,1.85,61.59.09,22.48-.71,44.94-3.33,67.28-2.24,18.92-1.77,37.77-4.16,56.68-2.82,22.36-6.2,44.65-10.22,66.83-7.14,39.49-16.6,79.08-30.5,116.76-27.87,75.6-79.86,135.8-143.82,183.4-30.9,22.98-64.84,42.84-100.99,56.19-36.44,13.48-74.16,23.88-109.48,40.09-53.48,24.53-102.95,56.47-157.6,78.64-38.97,15.79-79.35,28.29-120.65,35.72v2.05c57.58-10.2,113.62-30.13,165.99-55.71,35.44-17.33,69.34-37.67,104.8-54.98,37.64-18.36,78.3-29.33,117.48-43.9,65.88-24.46,128.39-69.35,174.66-122.25,23.62-27,44.82-56.51,59.68-89.28,15.71-34.65,26.09-71.62,34.64-108.62,8.74-37.8,14.47-76.26,19.21-114.76,1.11-8.97.6-18.14.6-27.17,0-9.84,2.47-20.23,3.48-30.03,2.31-22.32,2.3-44.87,2.14-67.28Zm457.58,87.56c-5.69,22.67-5.97,49.6,14.08,65.18,7.38,5.74,25.39-.74,31.57-5.21,15.93-11.52,33.65-21.17,47.41-35.31,52.05-53.57,107.79-104.51,148.71-167.65,3.61-5.59,9.82-12.93,11.58-19.37.79-2.87-3.23-8.72-4.47-10.78-7.09-11.78-17.22-9.78-29.65-9.81-28.66-.06-57.12,6.73-83.54,17.54-52.18,21.36-96.74,62.23-120.64,113.61-7.63,16.38-12.45,33.95-15.05,51.81-.18,1.24,1.71,1.78,1.89.52,15.98-109.83,127.11-188.92,235-180.82,11.85.89,14.87,16.94,10.2,24.9-3.76,6.43-7.81,12.68-11.94,18.88-9.92,14.97-20.98,29.16-32.41,42.98-21.49,25.97-45.1,50.12-68.78,74.06-11.94,12.05-23.94,24.03-35.84,36.13-13.84,14.06-29.11,24.71-45.29,35.85-8.02,5.53-15.37,9.41-24.9,11.63-15.46,3.6-23.15-9.65-27.06-21.46-4.42-13.38-2.31-28.83,1.02-42.16.32-1.24-1.59-1.77-1.89-.52h0Zm-4.24,675.87c16.71,22.41,37.19,41.72,59.45,58.52,48.39,36.5,106.4,58.72,164.54,73.88,68.59,17.87,139.84,26.42,210.55,28.57,42.09,1.3,84.18,1.34,126.17,4.83,42.5,3.52,84.3,13.52,124.1,28.93,75.95,29.44,122.39,100.02,176.07,157.64,52.83,56.74,108.71,110.65,168.04,160.47,12.89,10.84,26,21.41,39.23,31.79h3.27c-52.76-41.38-102.86-86.03-150.59-133.23-27.78-27.47-54.64-55.83-80.93-84.74-25.88-28.44-49.68-59.33-77.78-85.62-55.08-51.58-133.18-71.58-206.49-77.66-41.94-3.47-84.11-3.27-126.15-4.54-41.86-1.29-82.96-5.76-124.34-12.06-122.02-18.5-255.61-62.67-321.8-175.49-22.2-37.84-25.68-79.95-6.88-120.22,16.63-35.61,39.27-67.98,63.22-98.94,22.85-29.55,48.61-57.26,69.03-88.59,21.82-33.49,40.89-68.18,64.61-100.45,25.1-34.15,50.85-67.8,79.33-99.21,12.58-13.88,25.32-27.61,38.43-41,6.63-6.78,13.44-13.37,20.32-19.89,6.46-6.12,14.48-9.02,20.96-14.9,56.22-51.04,126.39-82.45,197.7-105.8,34.81-11.41,70.24-20.89,105.61-30.35,7.74-2.06,15.53-3.97,23.22-6.25,6.22-1.85,11.62-5.41,18.36-6.99,20.26-4.75,40.43-9.89,60.42-15.66,18.19-5.25,35.94-10.34,54.45-14.39,6.27-1.38,10.84-2,16.11-5.5,8.64-5.74,23.78-6.49,33.79-8.89,41.89-10.06,83.88-19.88,126.8-24.23,82.59-8.41,164.28,13.78,242.12,39.28,81.15,26.59,158.35,63.61,237.01,96.42,18.41,7.68,36.84,15.26,55.23,22.99,20.29,8.52,39.48,19.37,59.62,28.26,7.01,3.08,14.89,3.45,22.07,6.72,7.52,3.42,15.11,6.68,22.73,9.9,19.56,8.28,39.43,15.74,59.5,22.66,63.7,21.96,129.88,36.44,196.88,43.09v-2.02c-70.09-7.04-138.99-22.84-205.59-46.2-19.95-7.01-39.62-14.85-59.06-23.18-7.45-3.21-14.92-7.62-22.63-10.13-10.18-3.34-20.04-5.66-29.88-10.45-35.3-17.19-71.22-32.19-107.45-47.34-78.61-32.9-155.88-70.02-237.35-95.67-75.9-23.88-153-43.62-233.18-36.32-39.7,3.62-78.73,12.73-117.43,21.94-14.67,3.49-33.82,4.6-46.53,13.02-6.86,4.56-18.68,4.93-26.66,6.7-10.91,2.43-21.31,5.45-31.98,8.74-18.24,5.62-36.69,10.39-55.2,14.93-8.59,2.11-17.38,3.73-25.85,6.24-1.34.4-3.69,2.22-4.81,2.98-4.61,3.06-11.4,3.77-16.65,5.18-35.45,9.46-70.85,18.95-105.83,29.95-66.48,20.91-131.01,48.77-186.43,91.78-7.04,5.47-13.82,11.28-20.48,17.19-5.57,4.95-11.99,6.61-17.43,11.61-15.01,13.82-29.23,28.5-43.19,43.39-26.34,28.14-52.2,57.26-74.99,88.39-24.17,32.98-47.57,65.42-68.46,100.6-21.01,35.38-46.01,66.76-71.73,98.7-22.68,28.18-44.59,56.97-63.12,88.11-18.24,30.64-31.99,62.26-29.96,98.64,1.73,31.08,19.84,59.62,37.9,83.86Zm1731.56,544.63c41.31-51.2,79.25-107.27,132.42-145.48v-2.47c-54.35,38.65-92.8,95.92-134.96,147.95h2.54ZM637.61,195.13c-5.97-25.01-31.77-51.44-57.88-51.49-14.75-.03-30.61-2.2-44.9,1.92-17.04,4.91-33.61,11.35-49.78,18.63-62.67,28.22-121.79,73.77-164.16,128.03-42.27,54.14-69.6,118.15-102.76,177.88-28.95,52.16-62.87,100.11-113.11,133.5-23.18,15.39-48.95,26.45-75.59,34.14-3.27.95-4.72,3.95-7.88,5.28-6.78,2.83-14.36,4.53-21.54,6.49v2c.79-.23,1.59-.46,2.38-.69,15.36-4.52,28.15-11,43.09-16,28.71-9.63,56.14-24.49,79.85-43.4,54.31-43.34,87-104.72,118.6-165.42,32.93-63.21,65.73-126.91,118.25-176.31,26.94-25.33,57.79-47.41,89.62-66.06,16.03-9.4,32.8-17.47,49.99-24.5,18.58-7.61,37.79-15.22,58.08-13.34,8.08.74,16.01-.17,24.09-.16,12.68.02,23.83,9.17,32.24,17.76,15.33,15.67,21.16,36.6,24.63,57.59,7.05,42.57,4.41,86.23-.1,128.89-4.16,39.49-9.7,78.85-20.4,117.15-5.38,19.26-12.5,37.99-20.96,56.09-4.05,8.68-8.67,17.08-13.48,25.36.15-.25-1.23,2.05-1.28,2.89-.34,6.09-2.65,9.8-5.82,14.82-37.55,59.24-91.21,106.47-154.87,135.5-38.17,17.41-79.56,24.72-119.47,36.88-18.55,5.65-35.35,14.5-53.49,21.1-18.41,6.72-34.2,15.45-50.94,25.69-38.56,23.53-78.08,45.48-119.8,62.89-25.56,10.67-52.73,17.77-80.21,23.07v1.51c19.77-3.98,39.4-8.67,58.86-14.16,35.1-9.94,69.41-29.76,101.06-47.46,16.71-9.35,33.1-19.26,49.44-29.27,17.76-10.89,36.2-17,55.09-25.33,39.3-17.31,80.19-25.88,121.12-38.34,63.4-19.32,119.54-57.67,162.81-107.75,9.94-11.5,18.97-23.74,27.49-36.32,9.14-13.49,13.5-27.21,21-41.58,17.14-32.88,27.62-68.81,34.83-105.06,14.88-74.91,23.84-157.44,5.91-232.43Zm916.03,891.86c68.5,2.59,137.65-.76,205.91,6.3,34.47,3.57,68.77,10.38,100.66,24.34,33.3,14.55,57.96,38.11,80.4,66.18,25.63,32.16,48.88,66.16,73.68,98.95,23.09,30.54,48.41,57.96,75.51,84.89,12.94,12.86,25.34,26.29,38.43,39.04,15.16,14.74,31.91,27.73,48.19,41.18,21.22,17.56,42.46,35.06,64.06,52.12h3.15c-23.51-18.5-46.53-37.6-69.6-56.64-30.59-25.27-57.96-52.39-86.06-80.32-29.3-29.1-55.74-59.38-80.47-92.56-22.85-30.64-44.7-61.99-68.56-91.87-20.8-26.07-44.09-46.63-74.27-61.11-27.98-13.43-58.81-20.07-89.35-24.32-66.26-9.18-134.08-5.88-200.8-7.54-140.84-3.49-293.79-25.91-391.66-138.82-11.99-13.84-21.78-29.42-27.96-46.73-7.08-19.85-5.31-40.75-1.49-61.06,7.32-39.01,27-74.76,46.67-108.69,20.09-34.68,44.37-67.63,67.75-100.14,23.3-32.42,49.89-62.32,69.31-97.25,9.56-17.19,23.24-32.12,34.65-48.13,13.35-18.75,27.48-35.34,43.53-51.83,28.92-29.72,58.48-58.91,92.15-83.26,33.08-23.94,67.36-43.87,104.05-61.74,37.67-18.36,77.37-32.16,117.11-45.29,76.32-25.19,154.49-44.42,233.23-60.15,84.69-16.93,172.7-37.27,258.64-16.69,72.09,17.27,143.09,32.81,212.5,59.55,73.61,28.37,144.82,62.55,217.14,94.01,63.69,27.71,128.66,60.19,197.66,71.63,6.22,1.02,12.47,1.71,18.75,2.35,5.3.52,12.99-.12,17.65,2.62,1.32.77,3.32,2.53,4.83,2.97,15.97,4.73,33.5,6.02,50,7.96,19.09,2.26,38.11,4.53,56.93,8.43,1.34.28,2.69.53,4.03.79v-1.92c-7.74-1.45-15.46-3.16-23.1-4.4-20.26-3.33-40.77-4.97-61.11-7.85-8.74-1.24-20.51-1.57-28.22-6.11-4.83-2.83-5.96-3.52-11.67-3.77-21.53-1-42.82-5.25-63.62-10.79-38.43-10.26-74.95-26.77-111.4-42.41-38.33-16.45-76.61-32.9-114.67-49.97-74.53-33.41-149.41-68.31-227.83-91.65-38.77-11.53-78.44-19.76-117.85-28.78-40.21-9.19-79.08-14.66-120.46-12.9-40.58,1.73-80.37,10.38-120.19,17.68-39.92,7.31-79.66,15.56-119.17,24.84-78,18.31-154.86,41.41-229.66,70.19-72.24,27.79-139.36,69.99-196.16,122.61-28.2,26.11-57.01,53.58-79.21,85.01-11.34,16.05-25.67,31.02-35.58,47.84-11.46,19.47-22.67,37.65-36.6,55.51-47.56,60.99-95.46,125.48-129.49,195.2-14.96,30.64-26.51,64.7-26.01,99.19.43,29.61,17.42,56.06,36.11,77.61,91.67,105.78,237.3,130.74,369.53,135.72Zm1279.57,413.01c27-31.64,52.49-64.58,79.83-95.92,17.41-19.97,35.82-39.01,55.49-56.74,9.6-8.64,20.34-15.67,31.47-22.15v-2.02c-8.77,5.1-17.36,10.47-25.49,16.62-20.8,15.75-38.89,36.13-56.3,55.44-30.47,33.84-58.08,70.14-87.65,104.76h2.64Zm-1570.5-541.21c46.02,43.31,106.24,67.5,167.19,80.3,30.59,6.4,61.79,9.69,92.96,11.38,39.18,2.12,78.56,4.03,117.84,3.88,38.79-.14,77.42-4.32,116.26-4.49,41.8-.17,83.72,2.76,124.8,10.72,35.38,6.83,61.72,31.32,81.18,60.42,10.35,15.5,21.95,30.25,30.71,46.73,8.91,16.75,17.9,33.47,27.05,50.07,17.73,32.13,35.96,63.55,58.52,92.56,21.78,28,45.71,54.07,71.19,78.68,26.85,25.95,55.4,50.22,83.33,74.95,15.24,13.5,31.76,24.85,48.44,36.01h1.63c-3.15-2.15-6.25-4.34-9.32-6.57-17.5-12.62-34.4-26.24-50.39-40.75-28.37-25.73-57.67-50.29-84.84-77.34-27.37-27.3-52.42-56.84-74.85-88.36-22.98-32.3-41.24-68.36-59.96-103.25-16.75-31.2-35.74-63.79-60.01-89.82-21.88-23.49-49.29-33.25-80.1-38.38-40.5-6.76-81.71-8.1-122.68-7.52-42.02.59-83.69,4.91-125.76,4.18-134.67-2.39-298.15-10.13-384.46-131.57-10.45-14.72-17.77-31.3-20.98-49.1-3.92-21.7,2.63-43.5,8.91-64.08,10.83-35.62,27.67-69.08,46.39-101.11,18.08-30.97,38.35-60.61,57.87-90.67,21.56-33.23,41.78-66.92,66.08-98.28,47.97-61.92,104.61-118.03,169.36-162.07,15.21-10.34,30.93-19.89,46.9-28.96,8.01-4.54,16.14-8.84,24.29-13.07,9.93-5.14,23.85-14.7,35.13-15.31,5.96-.33,10.89-3.15,16.33-5.52,10.67-4.62,21.53-8.89,32.4-13.02,20.21-7.69,40.77-14.47,61.4-20.92,80.57-25.22,162.55-48.57,246.39-59.51,83.96-10.96,167.06-6.72,249.61,11.85,66.75,15.02,131.54,37.67,196.34,59.38,15.62,5.24,30.03,13.37,44.48,21.14,13.25,7.12,26.07,11.72,40.26,16.45,35.16,11.77,68.19,30.08,101.32,46.63,27.29,13.65,55.47,23.72,84.13,34.43,32.64,12.19,66.43,21.22,100.49,28.44,53.15,11.28,107.3,17.2,161.48,21.25v-2.03c-68.21-5.2-136.21-13.54-202.52-30.98-18.41-4.85-36.55-10.59-54.44-16.97-9.01-3.2-17.9-6.71-26.74-10.34-7.1-2.92-17.77-10.43-25.75-10.85-11.03-.6-21.51-7.57-31.2-12.44-8.91-4.45-17.8-8.88-26.71-13.29-19.73-9.79-39.55-19.41-59.47-28.82-15.19-7.17-32.33-9.51-47.54-16.83-16.36-7.9-31.83-17.43-48.63-24.5-37.23-15.66-77.59-26.53-116.14-38.44-76.46-23.64-154.88-41.55-235.18-42.45-80.86-.9-163.06,11.99-240.72,34.22-39.87,11.41-79.91,22.22-119.48,34.74-19.02,6.03-37.89,12.61-56.57,19.71-7.91,3.02-15.77,6.16-23.56,9.49-8.76,3.72-18.65,4.76-27.05,8.66-68.56,31.81-132.69,73.49-186.92,126.48-27.38,26.76-53.35,54.96-77.36,84.81-23.23,28.91-42.88,59.91-62.67,91.21-37.54,59.39-79.38,116.37-105.27,182.25-12.14,30.88-23.37,64.65-15.9,97.93,7.01,31.25,29.91,57.4,52.53,78.66Zm1532.36,541.21c34.18-34.38,61.48-74.98,91.31-113.31,31.89-40.99,68.6-74.61,113.62-97.34v-2.24c-41.55,20.7-76.47,50.58-106.62,87.62-33.96,41.7-63.18,87.35-101.17,125.27h2.85Zm-1411.83-514.16c129.98,62.69,278.11,43.6,415.74,24.29,32.32-4.54,65.62-12.18,98.36-9.62,34.55,2.71,62.7,19.77,84.33,46.26,24.56,30.08,34.57,65.82,48.73,101.3,12.36,30.91,26.42,61.08,42.07,90.43,32.38,60.77,73,116.92,122,165.21,25.42,25.05,54.81,44.75,82.86,66.55,13.26,10.31,26.59,20.51,40.5,29.74h3.57c-20.14-13.08-38.97-28.34-57.99-43.02-15.82-12.21-32.37-23.29-47.58-36.28-15.02-12.82-28.88-27.02-42.36-41.45-52.78-56.49-93.36-124.24-125.29-194.46-27.81-61.16-41.5-141.77-107.35-174.63-26.73-13.33-56.79-13.65-85.72-9.81-36.23,4.83-72.41,10.25-108.67,14.97-71.8,9.33-144.43,15.65-216.7,8.38-74.82-7.52-155.41-32.33-213.84-81.52-27.63-23.29-46.86-56.1-49.97-92.43-3.54-41.31,12.78-83.05,29.27-119.95,16.7-37.35,37.07-71.88,57.58-107.16,4.87-8.39,8.58-18.07,16.38-24.12,5.35-4.16,8.03-8.91,11.67-14.66,10.57-16.67,21.89-32.85,33.69-48.66,23.26-31.16,49.28-60.17,76.98-87.39,14.19-13.97,28.7-26.45,45.23-37.56,16.94-11.36,30.27-26.45,47.31-37.78,16.41-10.9,33.01-21.51,50.07-31.36,19.97-11.53,42.84-19.57,64.08-28.41,39.04-16.25,78.64-31.11,118.53-45.09,78.34-27.45,164.55-41.37,247.12-46.88,79.1-5.26,158.52,4.26,235.45,22.72,124.14,29.77,241.16,83.69,355.08,140.31,58.35,29.01,123.41,44.59,187.23,56.25,52.34,9.56,105.32,15.07,158.4,18.46v-2.03c-70.95-4.59-141.58-13.18-210.91-29.32-40.53-9.43-83.86-20.12-121.22-38.83-34.84-17.45-69.85-34.52-105.2-50.87-137.96-63.81-284.3-115.68-437.57-119.84-163.35-4.43-321.66,46-469.48,111.22-18.19,8.02-34.91,17.69-51.73,28.35-16.55,10.51-33.32,20.48-47.19,34.41-12.84,12.88-28.83,21.58-43.1,32.72-15.39,12.01-29.11,27.43-42.63,41.48-24.94,25.91-47.8,53.79-68.8,82.99-5.32,7.4-10.45,14.93-15.5,22.51-5.14,7.73-9.53,17.47-16.32,23.85-5.2,4.88-8.26,6.91-11.79,13.34-5.58,10.17-11.5,20.14-17.43,30.1-19.96,33.56-38.29,67.44-53.43,103.53-14.32,34.11-25.67,70.22-23.74,107.67,3.5,67.87,64.17,109.52,119.3,136.11Zm1375.16,514.16c40.92-37.67,72.92-84.11,107.74-127.51,22.29-27.78,46.36-54.3,74.66-76.05,18.29-14.04,38.31-23.39,59.21-31.1v-2.12c-18.43,6.72-36.21,14.72-52.91,26.22-27.95,19.24-51.39,44.53-73.12,70.39-39.38,46.9-73.29,98.95-118.53,140.18h2.95ZM218.09,652.06c6.35,5.31,11.66,11.66,17.8,17.19,4.65,4.18,11.02,4.61,16.91,5.86,18.21,3.87,37.1,4.29,55.64,3.99,33.17-.51,66.78-1.97,98.62-11.85,49.79-15.49,92.32-48.18,123.99-89.28,32.16-41.75,52.28-92.14,62.46-143.64,5.2-26.27,7.35-53.1,7.05-79.86-.15-13.24-1.16-26.47-2.72-39.62-1.41-11.95-2.05-26.38-7.92-36.99-7.32-13.26-11.47-28.49-23.16-38.6-9.7-8.38-21.46-14.06-34.03-14.82-15.49-.94-31.53-1.59-46.1,3.91-12.35,4.65-24.28,10.35-35.89,16.64-45.81,24.84-83.11,62.67-113.15,104.92-30.7,43.18-53.6,91.56-73.52,140.53-10.11,24.83-19.3,50.04-28.24,75.32-4.52,12.75-8.93,25.54-13.35,38.33-5.52,15.92-5.73,30.41-4.68,47.29.09,1.27,2.05,1.28,1.98,0-1.2-19.19.51-34.99,6.78-53.08,4.83-13.94,9.68-27.87,14.64-41.76,10.19-28.61,20.95-57.03,32.85-84.97,23.29-54.71,51.76-107.85,90.57-153.12,19.35-22.58,41.62-42.52,66.26-59.1,11.66-7.84,23.99-14.62,36.63-20.69,7.52-3.61,15.27-6.75,23.07-9.69,11.26-4.23,25.22-2.78,37.1-2.7,42.93.32,62.02,45.69,67.37,82.33,4.14,28.38,4.49,57.29,2.1,85.84-6.77,80.92-39.92,161.8-99.67,217.65-30.18,28.2-67.28,47.8-107.19,57.82-26.15,6.57-54.97,6.53-81.83,7.23-15.42.4-30.82-.3-46.1-2.37-9.73-1.32-20.42-2.76-28.07-9.63-5.15-4.61-9.45-10-14.78-14.45-.97-.82-2.37.57-1.39,1.39h0Zm1184.17,289.76c12.49,8.3,24.07,11.65,37.34,18.04,16.59,7.96,34.12,13.82,51.89,18.43,71.89,18.65,148.81,9.72,220.93-2.91,39.84-6.98,78.95-17.72,117.82-28.9,18.85-5.44,37.64-11.01,56.52-16.43,21.63-6.2,41.75-14.67,64.63-9.91,34.08,7.1,61.01,31.32,79.34,59.99,19.46,30.37,26.61,65.5,33.42,100.36,13.53,69.46,33.42,134.72,69.12,196.02,55.44,95.24,138.35,174.39,236.67,223.49h4.42c-105.61-51.78-192.51-138.14-249.15-241.8-7.62-13.94-14.53-28.25-21-42.77-2.9-6.59-2.71-14.16-5.76-20.48-5.35-11.04-9.84-22.36-13.7-34.01-12.11-36.5-16.85-75.07-25.24-112.5-12.75-56.69-44.73-112.77-103.86-129.3-14.11-3.93-28.25-3.22-42.24.76-20.12,5.74-40.21,11.99-60.33,17.87-38.77,11.33-77.56,22.51-117.07,30.98-77.56,16.65-161.45,26.54-239.62,8.69-19.24-4.37-37.89-11.06-55.81-19.29-4.24-1.95-10.78-7.33-15.41-7.59-9.64-.56-17.58-7.55-25.4-12.75-31.61-20.97-61.18-48.05-70.12-86.38-9.36-40.16,2.09-83.07,16.25-120.62,14.67-38.91,34.86-75.51,56.24-111.07,19.13-31.82,43.53-62.02,66.7-90.97,21.85-27.28,45.7-52.86,72.01-75.85,13.28-11.62,28.42-21.12,40.84-33.61,14.94-14.99,33.18-26.15,50.88-37.59,30.64-19.79,62.55-37.57,95.48-53.22,68.43-32.51,141.55-52.47,215.8-66.27,41.92-7.79,82.52-16.86,125.36-17.65,42.75-.79,86.21,3.02,128.37,9.86,71.48,11.61,142.38,33.63,210.47,57.99,72.83,26.05,141.58,61.54,211.67,94.09,31.18,14.48,62.55,27.89,95.12,38.94,16.33,5.54,33.5,9.53,50.37,12.93,7.25,1.45,14.77,1.64,22.12,1.8,9.62.22,17.11,2.32,26.2,4.9,5.93,1.67,13.3,1.11,19.41,1.56,10.28.78,20.53,1.62,30.81,2.46,18.8,1.55,37.6,3.2,56.42,4.81,26.59,2.27,53.18,4.44,79.81,6.29v-1.98c-30.05-2.09-60.06-4.59-90.06-7.18-20.53-1.76-41.04-3.52-61.57-5.18-10.26-.83-20.53-1.6-30.79-2.34-9.16-.66-16.31-5.27-25.68-5.28-40.18-.04-79.03-15.11-116.09-29.37-40.99-15.77-80.49-35.9-120.19-54.7-36.74-17.41-73.41-36.94-111.55-50.99-38.04-14.01-76.34-26.77-115.14-38.51-78.71-23.81-157.72-39.94-240.09-42.01-40.43-1.01-78.54,4.52-117.97,12.51-37.97,7.7-76.03,14.5-113.58,24.28-68.7,17.9-134.16,46.03-195.41,81.9-15.43,9.03-30.52,18.66-45.41,28.58-7.64,5.09-15.18,10.34-22.7,15.62-8.62,6.07-14.65,14.98-23.22,21.17-27.78,20.14-52.97,43.65-76.11,68.98-48.72,53.31-91.92,114.22-125.12,178.35-17.16,33.15-32.21,68.28-40.04,104.93-6.7,31.35-8.58,69.68,7.48,98.66,15.15,27.32,39.95,47.22,65.49,64.16Zm1307.8,558.18c54.13-39.8,90.68-98.98,133.2-151.3,42.51-52.27,92.65-98.88,156.74-117.07v-2c-59.94,16.85-107.84,58.23-148.85,106.49-47.24,55.59-85.23,121.34-144.43,163.87h3.34Zm56.64-89.77c35.18-44.75,62.99-95.41,103.64-135.69,35.2-34.86,81.61-54.69,129.66-64.74v-1.88c-23.05,4.88-45.61,11.96-67.19,21.49-30.59,13.5-55.98,34.2-78.32,58.91-49.34,54.57-81.35,122.44-136.67,171.97-18.82,16.85-38.89,29.93-59.79,39.72h4.1c41.85-20.22,75.81-53.17,104.57-89.77Zm-1182.13-453.95c77.98,4.83,154.01-16.87,223.22-51.73,14.53-7.3,29.47-11.6,44.16-18.65,16.8-8.03,34.33-14.45,52.3-19.26,35.6-9.55,73.61-9.72,107.59,5.59,33.89,15.28,58.16,49.78,72.19,83.3,13.5,32.23,18.16,67.65,21.83,102.15,1.76,16.48,3.17,33.01,4.93,49.49.73,6.96,1.54,13.92,2.49,20.85,1.66,12.14,6.23,23.56,6.98,35.79,1,16.09,5.44,30.49,12.01,45.14,4.13,9.23,9.47,17.63,13.33,27.03,3.25,7.98,6.1,16.02,9.86,23.76,4.03,8.3,10.25,15.38,14.94,23.31,4.59,7.76,8.52,15.94,13.06,23.76.66,1.12,4.44,4.51,5.4,5.47,10.52,10.57,1.93,4.1,6.18,10.62,4.69,7.16,10.59,13.21,14.69,20.85,3.49,6.49,10.79,12.57,15.67,18.09,6.13,6.88,12.45,13.62,18.87,20.24,13.67,14.18,28.17,27.49,43.24,40.11,38.67,32.37,82.98,59.35,130.27,77.83h8.47c-51.61-19.02-100.29-48.19-140.84-82.15-29.17-24.44-58.42-52.57-79.57-84.35-3.81-5.76-7.55-11.74-11.25-17.41-4.23-6.47-10.06-11.26-13.92-18.22-10.06-18.26-22.56-35.06-30.12-54.51-6.45-16.51-15.48-31.54-21.88-48.02-3.93-10.13-6.08-20.7-6.45-31.54-.34-9.82-4.47-18.53-5.91-28.1-5.17-34.1-6.71-68.63-11.4-102.78-8.45-61.5-30.1-129.66-88.43-160.62-55.76-29.57-123.49-9.47-176.08,17.09-7.01,3.54-13.96,2.98-20.85,6.74-8.4,4.59-16.97,8.89-25.61,13.04-19.55,9.42-39.77,17.36-60.33,24.24-40.45,13.55-80.86,20.22-123.46,21.29-75.88,1.88-167.12-18.77-212.94-84.96-45.55-65.82-3.43-152.93,28.88-215.03,31.13-59.84,72.55-113.88,120.21-161.34,24.68-24.59,51.32-47.13,79.17-68.02,13.06-9.79,26.49-19.08,40.11-28.06,15.92-10.47,30.39-21.51,47.34-30.27,17.38-8.97,34.67-18.15,52.05-27.14,17.65-9.12,37.77-15.04,56.52-22.13,36.28-13.74,74.24-22.61,111.82-31.95,161.81-40.21,335.57,1.1,485.72,64.78,48.75,20.67,96.39,43.89,144.29,66.44,23.8,11.2,47.73,22.22,71.85,32.75,23.53,10.28,47.44,21.57,72.19,28.47,22.83,6.35,47.17,7.69,70.6,10.07,29.42,2.99,58.93,4.61,88.45,5.91,44.51,1.94,89.06,2.9,133.55,5.42v-2c-73.98-4.21-148.19-4.15-222-11.3-20.43-1.98-41.04-3.86-61.18-7.9-20.14-4.05-39.18-12.93-58.06-20.75-39.48-16.37-78.12-34.63-116.73-52.9-72.51-34.32-145.02-68.64-221.51-93.16-38.26-12.26-77.25-22.01-116.62-29.77-38.38-7.56-76.51-10.81-115.55-12.63-79.4-3.69-156.81,12.44-232.59,35-17.63,5.25-34.98,11.41-51.98,18.45-7.18,2.96-14.55,4.01-21.75,6.37-9.13,2.98-18.19,9.24-26.73,13.66-17.38,9.02-34.69,18.2-52.1,27.15-16.23,8.34-30.1,20.08-45.38,30.27-108.79,72.47-199.29,172.63-252.31,293.02-25.45,57.78-49,128.44-5.33,184.06,43.8,55.79,116.59,74.9,184.4,79.1Zm1415.43,226.9c-58.64,8.67-115.21,21.36-161.16,63.26-24.61,22.46-42.04,52-59.4,80.2-17.33,28.17-34.16,56.69-54.93,82.52-48.56,60.45-122.83,88.6-199.19,84.57-78.74-4.18-155.3-40.45-214.75-91.5-56.69-48.68-104-110.55-131.08-180.91-29.08-75.61-18.14-159.03-29.32-237.94-2.56-18.14-6.15-36.06-11.45-53.61-2.27-7.52-5.18-14.84-8.23-22.09-4-9.47-11.77-18.68-12.35-29.1-.49-8.35-15.6-22.15-21.05-28.03-10.3-11.13-22.41-20.43-35.28-28.37-53.44-32.96-119.12-30.47-177.03-12.5-71.19,22.1-132.13,68.43-203.76,89.09-73.19,21.14-164.43,15.75-216.31-47.02-11.51-13.94-19.01-30.71-22.46-48.41-4.05-20.75,2.42-42.23,4.31-62.9,1.74-19.04,11.12-36.9,19.02-54.15,7.31-15.99,15.45-31.58,24.1-46.89,33.86-60.06,78.04-113.86,128.38-160.67,111.96-104.05,258.3-170.58,411.18-179.16,40.99-2.3,82.18.41,122.68,6.68,40.67,6.27,79.44,19.74,118.09,33.42,40.85,14.45,81.1,30.56,120.68,48.22,16.45,7.34,33.06,11.94,49.17,20.18,19,9.74,37.89,19.66,56.81,29.56,40.6,21.24,81.3,42.25,122.95,61.3,9.13,4.16,18.31,8.22,27.54,12.12,10.67,4.53,23.12,5.56,34.52,7.35,21.66,3.42,43.53,5.37,65.41,6.69,84.25,5.09,168.6-2.45,252.91-1.57v-1.99c-72.56-.86-145.09,4.27-217.65,2.94-43.65-.82-87.23-4.62-130.05-13.36-10.33-2.11-21.97-9.5-31.67-13.88-8.99-4.08-17.92-8.29-26.81-12.54-19.16-9.15-38.14-18.74-57.03-28.44-36.5-18.73-72.66-38.09-109.23-56.65-5.37-2.74-9.91-5.61-15.96-5.95-10.72-.59-23.93-9.29-33.77-13.6-18.43-8.08-37.08-15.72-55.81-23.1-38.67-15.21-78-29.59-117.87-41.28-37.28-10.92-76.1-15.47-114.72-18.03-147.41-9.8-298.66,44.2-415.82,132.15-52.32,39.28-99.22,85.68-138.94,137.78-20.41,26.8-38.52,55.34-54.5,85.01-7.71,14.31-14.72,28.98-21.29,43.85-6.32,14.3-13.34,28.36-14.27,44.01-1.1,18.37-5.85,36-5.27,54.53.45,14.72,6.07,29.15,12.99,41.94,14.73,27.27,41.2,47.24,69.1,59.25,63.68,27.37,140.54,17.24,202.4-10.38,69.51-31.03,134.62-75.37,211.57-85.67,68.38-9.16,137.23,15.67,177.49,73.19,3.17,4.52,2.64,9.25,4.88,13.94,4.86,10.08,10.33,19.43,14.48,29.91,7.33,18.48,11.4,38.18,14.65,57.74,6.93,41.82,7.86,83.91,9.69,126.17,1.66,38.55,5.59,75.93,18.04,112.6,11.23,33.06,28.39,63.8,47.73,92.68,9.06,13.55,18.87,26.59,28.91,39.45,11.62,14.89,25.81,26.51,38.94,40.01,24.07,24.78,52.39,45.07,82.25,62.13,63.84,36.5,136.92,55.71,210.45,45.51,43.87-6.1,87.97-27.95,120.22-58.08,31.57-29.52,53.61-67.87,75.98-104.4,27.54-45,56.32-88.97,104.12-114.33,35.94-19.07,76.51-26.24,116.77-31.71v-1.74ZM314.46,571.08c6.15,10.28,11.73,26.01,22.8,32.26,14.39,8.12,29.49,12.94,45.95,14.52,28.19,2.72,55.72-8.58,78.75-23.98,45.02-30.11,73.5-81.56,86.35-133.25,6.68-26.83,8.52-54.88,5.42-82.34-2.48-22.11-8.41-45.82-26.83-60.08-17.5-13.56-39.18-17.15-60.68-13.45-27.45,4.72-46.9,24.12-65.45,43.47-57.2,59.62-92.65,138.71-86.44,222.35.1,1.27,2.06,1.28,1.97,0-5.36-72.2,20.27-140.21,64.51-196.43,19.63-24.95,43.74-53.55,74.34-64.44,26.33-9.36,57.1-4.37,76.87,15.97,20.75,21.35,21.94,58.57,21.09,86.55-.94,31.26-8.81,62.23-21.2,90.83-23.78,54.93-73.31,109.05-136.26,113.05-17.05,1.07-33.93-3.11-49.35-10.16-15.86-7.24-21.73-21.81-30.14-35.86-.65-1.09-2.36-.1-1.7,1h0Zm2685.54,588.93c-5.81.41-11.6.85-17.41,1.39-7.86.73-15.7,1.76-23.53,2.98-4.59.71-9.18,1.69-13.72,2.66-6.37,1.37-14.16-.56-20.29,1.07-32.96,8.77-66.75,16.21-94.97,36.38-13.5,9.64-23.66,23.46-34.42,35.89-13.04,15.04-23.85,31.2-34.01,48.32-20.51,34.62-37.18,72.09-62.28,103.76-48.31,60.89-121.8,81.23-196.9,73.98-72.83-7.03-140.45-45.6-192.41-95.92-51.59-49.98-89.35-113.52-106.66-183.35-5.03-20.26-6.64-41.04-9.38-61.72-2.71-20.61-4.76-41.11-3.47-61.92,1.24-19.85,4.83-39.48,5.81-59.38.9-18.7-1.59-37.43-4.15-55.91-9.45-67.94-36.69-135.43-100.12-168.46-60.18-31.35-135.3-31.29-200.07-18.08-69.21,14.12-126.39,53.77-190.77,80.58-30.93,12.89-63.89,21.49-97.58,18.8-35.79-2.86-74.58-21.31-92.48-53.59-15.36-27.71-12.15-62.45-2.14-91.29,2.57-7.4,5.98-14.48,9.69-21.35,3.51-6.52,2.88-13,6-19.9,7.46-16.39,15.76-32.38,24.62-48.05,34.42-61.03,80-115.11,132.69-161,57.27-49.86,123.34-89.6,195.05-114.59,38.6-13.45,78.66-21.35,119.16-26.27,44.58-5.42,86.74-2.55,130.59,6.6,40.8,8.51,79.91,19.9,118.43,35.83,39.43,16.3,77.78,35.13,115.75,54.54,36.94,18.87,73.92,37.81,110.23,57.89,16.14,8.92,32.1,18.14,47.85,27.73,9.08,5.54,17.31,11.63,25.61,18.28,7.25,5.81,15.92,9.18,22.51,15.82,10.01,10.05,30.22,11.84,43.36,16.25,15.75,5.3,29.74,11.77,46.68,13.08,41.41,3.17,84.2-4.49,125.22-9.52,43.65-5.35,87.21-11.29,130.98-15.33,21.83-2.01,43.7-3.38,65.6-4.09,6.98-.23,13.94-.3,20.92-.34v-2c-5.27.04-10.55.11-15.82.22-21.92.46-43.82,1.93-65.67,3.78-42.07,3.57-83.93,9.26-125.83,14.51-40.09,5.03-81.06,11.6-121.53,11.49-17.65-.05-35.52-3.75-51.76-10.46-18.77-7.75-41.21-9.41-56-24.25-5-5.04-14.58-8.39-20.31-12.99-6.23-4.99-11.97-9.34-18.85-13.62-17.02-10.6-34.45-20.52-51.98-30.26-36.23-20.15-73.31-38.97-110.2-57.89-72.29-37.07-145.21-71-224.85-88.48-40.5-8.89-79.12-13.79-120.66-10.76-38.62,2.82-77.2,9.78-114.45,20.3-69.78,19.69-134.45,55.07-191.9,99.06-52.68,40.34-98.83,88.88-136.42,143.63-19.51,28.39-36.25,58.63-50.71,89.89-2.88,6.24-2.72,14.11-6.01,19.9-2.82,4.94-5.31,10.17-7.42,15.44-5.18,12.94-8.62,26.18-10.24,40.03-2.83,24.22,2.09,51.28,17.49,70.72,18.99,23.92,49.44,37.25,78.96,42.07,62.13,10.15,123.17-24.39,176.32-51.83,31.47-16.26,62.84-32.1,97.22-41.2,39.26-10.4,81.3-16.76,121.93-12.91,35.67,3.37,71.29,10.46,103.32,27.16,36.38,18.94,60.45,51.63,76.1,88.91,14.75,35.11,20.68,74.17,23.53,111.94,1.47,19.73-1.19,39.65-3.49,59.23-2.49,21.32-3.12,41.8-.98,63.19,3.81,38.38,8.89,75.98,20.75,112.77,10.28,31.93,26.41,61.13,45.09,88.84,73.56,109.3,209.81,190.02,343.8,153.64,37.69-10.23,70.51-32.72,96.22-61.86,31.67-35.94,50.34-82.25,75.27-122.78,13.75-22.36,31.59-44.68,50.51-62.97,18.22-17.6,42.7-26.9,66.5-34.06,11.04-3.32,22.26-6.1,33.42-9.03,6.72-1.76,13.52.42,19.99-1.12,6.06-1.44,12.14-2.66,18.26-3.74,13.36-2.32,26.86-3.49,40.41-4.44v-1.83Zm0-22.78c-64.01,1.22-128.42,2.34-188.77,26.39-25.46,10.13-45.39,39.53-59.23,62.04-17.11,27.78-29.25,58.4-43.07,87.89-14.89,31.84-32.44,60.01-59.96,82.4-31.3,25.46-70.83,40.89-110.87,43.68-74.15,5.1-149.31-31.67-202.54-81.3-55.27-51.56-92.29-122.14-101.44-197.39-5.03-41.58-4-83.23-1.05-124.93,2.93-41.26,7.2-82.62,3.56-123.95-3.22-36.3-9.99-71.85-28.61-103.59-16.01-27.32-41.14-51.32-68.19-67.43-29.47-17.54-65.16-22.8-98.64-26.77-40.77-4.85-81.91-4.08-122.66.57-76.42,8.73-147.24,37.76-219.31,62.4-31.47,10.74-69.16,17.7-97.36-4.53-36.33-28.63-13.62-90.28,1.27-124.95,28.39-66.02,73.56-126.93,125.71-175.83,26.51-24.85,55.93-46.41,87.03-65.06,36.01-21.6,79.93-34.85,120.44-45.06,157.69-39.71,302.61,38.84,425.05,130.97,59.91,45.09,116.82,96.2,182.23,133.32,29.59,16.8,61.52,24.28,95.46,19.69,19.31-2.61,36.01-10.69,53.93-17.66,19.92-7.75,40.09-14.78,60.43-21.3,79.69-25.56,162.91-40.72,246.58-41.85v-1.95c-67.48.95-134.42,11.08-199.83,28.14-39.72,10.36-78.69,23.58-116.87,38.65-19.72,7.77-37.21,13.91-58.59,15.51-20.88,1.56-44.43-3.37-63.21-12.16-35.4-16.55-67.6-40.67-98.54-64.32-29.1-22.23-57.76-45.05-86.84-67.32-56.3-43.16-114.72-84.07-179.66-113.11-68.43-30.6-142.6-45.58-217.36-36.57-39.04,4.7-77.22,16.63-113.92,30.49-34.81,13.17-66.11,31.18-95.97,53.35-53.93,40.02-98.63,91.23-134.01,148.22-18.97,30.53-35.89,62.64-46.36,97.16-8.96,29.56-14.99,66.76,8.86,90.57,18.55,18.54,46.36,19.69,70.63,15.76,34.4-5.57,66.82-22.24,99.63-33.41,77.24-26.31,157.35-44.03,239.26-40.5,40.16,1.72,82.79,6.75,119.85,23.2,33.54,14.88,62.91,44.92,81.35,76.32,21.26,36.28,26.91,81.83,27.71,123.24.83,41.7-4.3,83.33-6.64,124.93-4.3,76.24,3.78,153.12,42.75,220.12,32.15,55.32,78.96,101.44,135.99,130.42,63.08,32.08,136.5,41.41,201.71,10.79,27.22-12.77,52.56-31.86,70.9-55.91,20.12-26.42,32.52-57.94,46.24-87.99,10.77-23.53,22.24-46.75,37.13-67.97,8.08-11.52,17.53-21.93,27.91-31.32,14.77-13.35,32.32-19.14,51.07-24.49,50.83-14.5,104.1-14.94,156.81-15.72v-1.88Zm-1279.22-511.01c5.27,6.73,7.03,12.98,13.16,19.13,6.44,6.48,10.18,10.08,18.55,13.74,6.47,2.83,12.01,5.76,19.07,6.18,11.94.71,23.9,1.14,35.86,1.49,42.77,1.24,85.59.22,128.37-1.43,42.94-1.66,85.86-4.14,128.79-6.14,20.63-.97,41.28-1.77,61.91-2.38,10.33-.31,20.65-.51,30.98-.67,9.03-.14,22.71,2.46,31.25-.22,14.14-4.45,31.01-5.85,42.53-15.97,10.16-8.91,22.78-20.96,24.53-35.03,4.13-33.3-11.79-65.02-26.07-93.86-6.42-12.97-12.67-24.48-21.78-35.71-9.01-11.07-19.17-21.13-30.01-30.4-18.5-15.84-39.72-28.26-62.11-37.72-75.68-31.96-163.94-23.26-237.74,9.51-38.33,17.02-73.22,41.69-102.15,72.08-33.32,35.02-61.94,86.93-55.44,136.68.17,1.24,2.15,1.27,1.98,0-5.25-40.2,13.43-74.51,32.45-108.36,6.47-11.52,17.7-22.12,26.85-31.54,10.4-10.69,21.75-20.44,33.59-29.49,43.45-33.22,95.63-54.53,149.44-63.11,54.47-8.69,111.5-2.38,161.65,21.11,24.95,11.69,47.41,28.17,66.77,47.76,24.54,24.83,39.89,56.34,52.32,88.76,8.06,21.05,14.82,49.21,1.64,69.22-16.45,25-45.63,34.01-74.2,34.15-51.63.24-103.24,2.88-154.81,5.48-51.42,2.6-102.83,5.18-154.32,5.74-25.66.28-51.29-.11-76.93-1.16-14.92-.61-34.23-1.95-45.34-13.82-4.64-4.96-10.91-9.47-13.84-15.8-1.68-3.62-3.12-6.51-5.57-9.63-.78-1-2.17.4-1.39,1.4h0Zm99.58-51.9c22.14,36.61,69.11,38.65,107.52,39.87,46.78,1.49,96.44-2.5,141.16-17.14,17.46-5.71,30.98-14.34,43.41-28.02,7.42-8.16,16.8-20.31,17.92-31.59,1.49-14.95-.95-28.65-6.98-42.38-24.15-54.97-92.77-71.06-146.99-66.64-38.94,3.18-76.52,18.4-107.89,41.51-14.99,11.05-30.78,24.46-38.57,41.59-4.22,9.28-12.01,18.62-13.01,28.8-1.15,11.71-1.17,22.79,3.34,33.77.49,1.17,2.39.66,1.9-.53-15.23-37.02,14.67-75.28,41.75-97.57,25.29-20.8,55.93-34.63,87.72-41.78,63.5-14.31,150.95,2.77,174.1,72.39,10.79,32.49-9.81,65.1-38.18,80.64-18.12,9.91-39.65,14.22-59.74,17.83-49.12,8.85-102.54,11.4-151.76,1.88-22.78-4.4-41.41-12.83-53.98-33.62-.66-1.09-2.37-.1-1.71,1h0Zm-1406.14-87.24c4.8,7.6,9.57,15.81,18.84,17.43,6.3,1.1,12.5-.89,17.97-3.83,13.61-7.35,20.18-24.78,19.65-39.51-.6-16.41-13.89-27-29.92-22.4-5.66,1.64-14.49,13.6-17.96,18.28-6.79,9.16-10.25,18.05-8.72,29.54.16,1.24,2.14,1.26,1.97,0-2.18-16.41,7.01-27.97,17.97-38.86,16.73-16.59,34.07-3.38,34.78,16.09.41,11.4-5.13,22.64-12.88,30.63-4.62,4.78-10.83,7.44-17.33,8.25-11.21,1.42-17.41-8.28-22.67-16.61-.68-1.07-2.38-.09-1.7,1h0Zm2585.78,622.42c-28.3-.95-56.62-1.02-84.86-2.47-38.72-1.98-77.03-9.77-115.84-9.89-16.48-.05-32.79,2.27-48.59,6.98-16.5,4.91-27.02,12.7-38.94,24.66-9.23,9.28-12.38,23.98-15.67,36.11-5.01,18.5-8.96,37.31-13.18,55.98-8.33,36.79-18.21,73.22-37.48,105.93-20.51,34.86-50.61,57.72-89.7,67.33-73.95,18.24-148.61-16.28-199.95-68.46-27-27.44-48.68-59.67-61.96-95.92-12.72-34.72-16.43-72.12-16.14-108.86.34-41.04,7.52-81.13,14.21-121.48,6.96-41.99,13.65-84.06,19.34-126.25,2.51-18.68,4.76-37.38,6.79-56.1,2.44-22.46,1.68-46.39,11.77-67.04,17.9-36.66,71.73-26.84,102.15-15.2,56.25,21.57,105.54,72.74,169.83,52.06,31.2-10.03,57.32-33.17,81.15-54.85,12.74-11.59,25.15-23.53,38.08-34.92,7.64-6.73,16.46-11.95,24.05-18.85,4.42-3.99,8.59-8.28,12.79-12.49,3.64-3.67,10.57-5.6,15.35-8.15,1.95-1.04,4.13-3.52,5.67-5.04,5.13-5.15,11.28-8.37,17.53-11.91,10.99-6.22,21.95-11.6,33.72-16.24,21.97-8.65,44.85-14.9,67.9-19.94,33.55-7.33,67.75-11.16,102-13.49v-1.95c-62.77,4.31-126,13.6-183.84,38.97-14.82,6.51-29.91,14.33-41.33,25.8-4.69,4.71-13.01,6.28-18.39,10.56-9.25,7.37-16.84,16.61-26.37,23.83-24.17,18.26-45.17,40.28-68.36,59.83-24.98,21.08-53.69,39.68-87.01,42.27-34.89,2.71-66.55-18.12-95.78-34.36-26.34-14.65-53.37-28.84-83.64-32.74-27.54-3.54-56,2.89-68.89,29.28-6.69,13.68-6.89,29.23-8.28,44.07-2.08,22.12-4.66,44.19-7.5,66.23-5.61,43.8-12.6,87.45-19.8,131.01-11.84,71.92-23.61,144.17-5.2,216.14,31.01,121.17,175.1,234.38,300.93,176.07,40.92-18.94,65.94-60.86,80.93-101.76,8.5-23.15,13.87-47.39,19.26-71.41,5.71-25.47,9.62-53.76,22.1-76.91,14.21-26.34,50.05-34.06,77.07-36.3,27.17-2.27,54.66,1.95,81.59,5.1,44.07,5.18,88.31,4.91,132.5,6.62v-1.86Zm0-21.7c-105.89-7.15-223.44-25.66-286.11-119.31-10.13-15.14-17.95-31.45-21.46-49.42-4.3-21.95-.39-44.92,4.64-66.36,8.62-36.6,22.9-69.65,44.16-100.62,43.65-63.49,108.55-107.05,182.23-127.22,25-6.85,50.71-10.81,76.54-12.71v-1.91c-61.16,4.6-122.29,20.75-173.37,55.26-27.15,18.32-51.44,40.65-72.26,65.93-19.04,23.09-39.57,52.11-48.12,81.14-9.6,32.67-21.71,68.04-16.41,102.59,4.66,30.35,21.7,56.86,41.77,79.47,36.87,41.58,89.62,64.36,142.41,77.51,41.19,10.28,83.59,14.8,125.98,17.63v-1.98Zm0-29.86c-103.74-16.28-223.78-65.16-229.91-184.13-3.37-65.09,31.96-125.62,79.54-167.17,25.49-22.24,55.59-39.1,87.57-49.83,20.34-6.82,41.5-10.85,62.79-13.84v-1.85c-21.39,3.11-42.6,7.23-63.33,13.78-31.2,9.88-59.84,26.89-85.13,47.56-49.98,40.84-83.52,101.5-83.55,166.93,0,61.6,40.7,112.65,90.55,144.14,42.36,26.76,91.89,39.75,141.46,46.73v-2.32Zm0-26.2c-83.86-19.68-173.8-68.36-182.08-161.74-4.57-51.56,23.24-101.27,58.28-136.74,18.87-19.09,41.45-33.89,65.53-45.47,18.97-9.13,38.43-13.57,58.28-17.15v-1.81c-20.12,3.75-39.8,8.34-59.28,17.25-25.68,11.76-48.83,28.47-68.65,48.55-35.08,35.52-59.16,84.62-56.13,135.38,2.98,49.8,37.31,91.99,76.51,119.51,31.93,22.41,69.36,36.16,107.55,44.58v-2.35Zm0-35.91c-61.84-21.19-121.83-65.21-126.44-134.08-5.08-75.98,58.93-131.85,126.44-155.19v-2.16c-68.9,23.42-131.32,79.91-128.42,157.35,2.64,69.63,65.87,114.77,128.42,136.11v-2.03ZM91.03,720.44c-7.7-9.94-22.27-9.41-33.4-9.96-19.29-.95-38.49,1.37-57.63,4.4v2.36c8.06-1.25,16.14-2.42,24.24-3.33,12.67-1.43,25.38-1.83,38.11-1.21,7.71.38,15.36.95,22.23,4.78,12.94,7.22,12.4,22.12,6.64,33.41-11.23,22.06-38.53,37.79-59.62,48.78-10.24,5.32-20.79,9.91-31.6,13.7v1.85c12.5-4.37,24.71-9.74,36.63-15.94,23.06-12.01,49.31-29.92,59.7-54.76,3.49-8.38-.18-17.44-5.31-24.07Zm2908.97,238.4c-40.41-20.85-76.32-55.54-77.88-102.12-1.68-50,35.55-88.06,77.88-110.73v-2.33c-42.14,22.28-77.25,59.11-79.81,109.16-2.54,48.9,37.21,86.33,79.81,108.13v-2.1Zm0-79.37c-3.25-7.25-5.23-15.19-5.52-23.9-.29-9.47,1.81-18.46,5.52-26.81v-3.49c-4.44,9.2-7.13,19.31-7.47,30.3-.34,10.69,2.56,20.48,7.47,29.32v-5.42ZM108.48,1374.27c44.18,17.65,92.93,27.03,140.19,30.52,57.86,4.27,115.93-.66,173.84-.29,52.34.34,102.05,9.86,149.95,31.32,36.16,16.19,69.41,38.38,99.49,64.18h2.92c-43.6-37.52-93.6-67.02-148.95-83.67-73.52-22.14-151.64-11.89-227.15-11.89s-155.7-10.64-222.26-47.39c-15.53-8.57-29.69-19.39-42.49-31.64-5.56-5.32-13.44-12.72-11.91-21.51,1.12-6.49,7.25-11.87,11.92-15.89,9.1-7.81,18.37-15.38,28.12-22.36,31.92-22.83,71.89-31.08,109.19-40.89,39.39-10.35,79.37-19.14,119.03-28.47,18.76-4.4,37.61-8.35,56.57-11.77,8.4-1.51,18.71-1.49,26.56-4.76.9-.39,2-1.71,2.4-2.08,4.38-4.03,11.88-4.12,17.46-5.34,67.8-14.89,124.73-51.59,176.71-96.8,51.98-45.24,97.66-97.19,148.03-144.17,13.38-12.45,26.97-24.9,41.79-35.62,7.03-5.1,13.77-10.57,20.84-15.62,7.03-5.01,16.14-7.77,22.17-13.8,10.08-10.16,26.61-16.45,39.11-23.41,14.8-8.25,32.03-17.07,49.29-12.09,17.06,4.93,28.61,30.23,36.99,44.53,9.28,15.87,17.39,32.42,26.14,48.61,7.28,13.45,15.09,26.85,24.45,38.99,5.18,6.71,10.65,13.03,16.59,19.09,5.79,5.91,8.69,14.01,14.6,20.19,24.22,25.37,53.36,45.14,83.37,62.89,34.66,20.46,69.49,40.72,104.59,60.42,66.98,37.55,134.57,71.75,211.53,81.64,77.6,9.96,156.08,6.96,233.74,16.97,11.43,1.47,22.7,2.66,33.62,6.54,10.28,3.66,20.19,7.96,30.66,11.09,21.63,6.42,41.45,13.55,61.13,24.95,40.18,23.32,77.29,52.88,114.45,80.67,66.53,49.73,131.69,101.29,197.05,152.59h3.2c-54.22-42.5-108.3-85.2-163.08-126.98-33.6-25.61-67.26-51.34-101.91-75.51-29.44-20.51-58.69-41.36-92.92-52.95-17.36-5.86-34.79-11.01-52.07-17.19-16.19-5.76-35.47-6.27-52.42-8.33-39.18-4.69-78.73-5.52-118.1-6.98-40.4-1.54-80.8-3.86-120.62-11.2-40.96-7.55-78.49-23.12-115.76-41.33-35.74-17.48-70.42-37.06-104.86-56.98-33.73-19.51-68.27-38.19-100.51-60.11-15.44-10.5-29.89-22.34-43.38-35.26-6.82-6.54-10.98-13.08-16.1-20.92-4.36-6.66-11.06-12.01-16.22-18.14-23.49-27.76-37.56-62.4-55.47-93.75-11.19-19.6-26.26-50.83-53.5-46.82-12.79,1.88-24.22,7.54-35.46,13.67-6.43,3.49-12.72,7.25-19.1,10.82-5.96,3.34-12.95,5.4-17.79,10.25-6.85,6.89-16.38,10.74-24.4,16.16-7.18,4.84-13.91,10.4-20.84,15.6-13.7,10.26-26.45,21.51-39.09,33.08-25.64,23.51-49.95,48.44-74.38,73.19-48.6,49.22-98.23,98.17-158.14,133.47-34.22,20.19-69.73,31.66-108.4,39.6-4.94,1.03-7.19,5.18-12.87,6.01-9.78,1.44-19.51,3.17-29.21,4.98-20.45,3.81-40.72,8.47-60.95,13.33-39.55,9.47-79.42,18.11-118.66,28.78-35.35,9.62-69.42,18.43-99.62,40.04-11.93,8.52-25.18,17.99-33.99,29.76-8.25,11.06-1.87,19.26,6.04,27.54,21.89,22.85,49.74,38.82,78.86,50.44Zm74.76-48.51c10.38,9.74,25.94,14.04,39.11,18.16,17.85,5.59,36.47,8.42,55.03,10.4,40.25,4.32,82.14-2.03,122.47-3.18,42.26-1.2,83.98,2.39,123.89,17.14,35.02,12.92,68.34,30.23,99.74,50.34,36.14,23.17,69.19,50.88,99.41,81.37h2.71c-42.94-43.36-91.47-80.64-145.72-108.93-32.16-16.8-66.38-30.96-102.15-37.45-38.53-6.98-78.21-4.81-117.08-2.78-41.92,2.17-82.84,4.3-124.11-5.13-18.96-4.34-40.15-10.3-54.6-23.88-21.47-20.19,10.9-42.94,27.57-51.29,14.41-7.23,30.65-10.69,46.41-13.43,20.12-3.49,39.55-9.28,59.25-14.53,38.32-10.18,78.67-12.31,116-26.78,34.13-13.28,66.92-29.39,96.83-50.61,28.03-19.9,53.56-43.14,78.16-67.11,52.83-51.44,101.33-110.23,163.89-150.32,33.59-21.53,69.27-28.25,104.94-8.2,26.94,15.16,47.44,40.36,68.87,62.11,10.7,10.86,23.28,17.82,34.05,28.64,13.66,13.72,29.14,24.56,45.19,35.33,32.66,21.92,67.39,40.48,101.33,60.28,67.76,39.6,134.26,81.06,209.14,105.91,37.22,12.35,75.85,20.36,115,22.68,42.47,2.54,84.71,1.83,127.14,6.54,40.57,4.49,80.76,8.69,119.36,22.88,39.33,14.48,73.75,39.75,108.71,62.35,33.86,21.9,66.43,45.66,99.32,69,33.03,23.44,67.36,45.36,99.78,69.6,6.74,5.03,13.5,10.06,20.22,15.14h3.57c-53.27-40.84-109.96-77.54-164.63-116.36-33.64-23.88-68.02-46.58-102.9-68.65-32.23-20.39-65.38-35.94-102.56-44.73-37.65-8.86-77.98-11.57-116.45-14.55-43.25-3.37-86.94-.81-129.88-7.23-81.66-12.18-156.12-48.97-226.81-90.09-34.76-20.21-69.42-40.62-104.25-60.72-34.52-19.94-71.55-40.33-99.88-68.77-5.14-5.18-9.99-11.28-16.09-15.31-6.63-4.34-12.29-7.66-17.96-13.33-11.1-11.13-21.7-22.7-32.96-33.69-19.38-18.92-41.49-35.64-68.57-40.82-31.08-5.91-60.96,10.52-85.68,27.64-29.19,20.17-55.13,44.88-80.32,69.75-52,51.34-100.7,106.37-161.41,147.75-32.38,22.07-71.7,39.97-109.43,50.2-37.82,10.28-76.55,15.16-114.31,25.63-31.42,8.74-65.16,10.3-93.73,27.37-10.73,6.42-19.25,15.65-25.51,26.42-5.21,8.96,3.95,19.65,9.89,25.24Zm2142.17-141.21c9.91,91.92,108.25,190.9,205.15,169.39,24.9-5.52,46.17-20.9,62.92-39.72,5.08-5.71,7.44-13.74,10.76-20.58,3-6.25,10.16-14.84,11.33-21.51,2.42-13.72,4.03-27.52,4.91-41.43,3.54-56.57-6.96-114.11-29.61-165.94-18.21-41.62-45.9-78.98-81.49-107.18-15.16-12.01-34.45-27.1-54.1-28.64-21.97-1.71-37.2,4.08-54,17.9-31.49,25.93-49.64,66.89-61.62,104.96-13.31,42.28-19.58,88.58-14.23,132.76.15,1.25,2.12,1.27,1.98,0-6.96-57.47,5.13-118.45,28.83-170.87,11.06-24.49,26.02-47.8,46.43-65.43,11.55-9.99,24.22-16.9,39.58-17.65,19.21-.98,33.15,6.35,48.88,16.38,52.15,33.2,87.99,87.09,108.28,144.8,10.18,28.88,16.07,59.25,18.6,89.75,1.15,14.04,1.32,28.12.86,42.19-.51,15.58.32,38.09-7.45,51.83-5.49,9.79-10.33,19.97-15.04,30.2-4.1,8.91-12.23,15.87-19.51,22.19-12.67,11.06-27.81,18.85-43.92,23.36-31.25,8.79-64.6,1.17-93.07-12.84-57.52-28.27-105.52-89.16-112.47-153.91-.15-1.27-2.1-1.27-1.98,0h0Zm-1748.38,154.69c67.54,47.46,129.62,101.81,187.31,160.77h2.76c-44.01-45.17-90.54-87.84-140.42-126.47-29.38-22.73-61.64-42.09-90.29-65.65-13.32-10.94-24.88-25.64-21.29-43.85,1.87-9.45,9.23-18.58,14.55-26.42,7.09-10.42,15.2-20.17,23.23-29.88,25.07-30.37,53.99-57.2,82.45-84.3,28.59-27.2,53.71-59.01,84.3-83.81,32.79-26.61,69.61-53.27,114.21-45.61,19.42,3.32,37.9,15.92,54.88,25.47,18.26,10.25,36.1,21.24,53.82,32.4,70.24,44.17,140.43,87.89,212.57,128.93,68.43,38.92,138.05,80.27,214.74,100.15,79.67,20.65,163.59,10.55,244.32,24.88,42.8,7.59,80.42,22.73,118.19,44,35.57,20.02,70.17,41.75,104.22,64.26,41.75,27.59,82.5,56.61,123.07,85.91h3.32c-55.88-40.31-112.16-80.13-170.58-116.72-32.81-20.56-66.99-43.48-102.9-58.16-36.43-14.87-75.27-22.73-114.26-26.83-41.02-4.32-82.32-4.64-123.46-7.25-41.77-2.66-81.77-10.33-121.35-24.07-39.76-13.82-76.98-34.55-113.96-54.42-36.3-19.53-72.11-39.97-107.7-60.74-71.17-41.55-139.44-87.82-210.63-129.23-28.58-16.62-58.95-36.89-93.56-31.06-35.6,5.98-62.67,27.49-89.99,49.64-15.12,12.28-27.22,27.12-40.56,41.21-13.98,14.82-28.74,28.88-43.48,42.9-28.53,27.17-56.95,54.27-82.08,84.72-16.53,20.02-44.63,47.53-33.01,75.71,10.05,24.34,41.42,39.38,61.58,53.54Zm66.8-38.21c12.43,27.17,34.3,49.42,54.44,70.88,10.2,10.89,19.63,22.8,30.26,33.25,14.62,14.35,29.61,27.49,43.37,42.77,16.02,17.75,33.26,34.3,49.21,52.08h2.72c-18.34-20.73-38.5-39.8-56.84-60.55-12.43-14.06-26.93-25.75-40.31-38.87-11.29-11.08-21.34-24.02-32.19-35.59-22.55-24.07-45.2-49.39-55.36-81.47-5.78-18.28-4.31-33.86,2.35-51.49,6.58-17.46,15.51-33.94,25.61-49.56,18.96-29.39,43.81-54.69,71.05-76.39,15.3-12.18,31.25-23.88,49.99-29.93,21.06-6.81,42.51-8.49,64-3,36.49,9.32,72.74,26.47,106.82,42.28,35.46,16.48,69.42,36.06,102.78,56.42,66.75,40.7,131.25,85.25,201.05,120.73,32.51,16.53,66.45,30.28,101.93,38.84,16.16,3.93,32.66,6.25,49.23,7.42,9.12.66,18.27.61,27.39.32,8.69-.27,14.75,4.69,23.01,5.06,41.9,1.85,83.91,2.66,125.29,10.13,40.16,7.25,78.39,23.36,114.94,41.14,58.76,28.59,113.06,65.5,165.48,104.52h3.25c-51.98-38.67-105.64-75.05-163.6-104.17-33.52-16.85-68.77-31.69-105.32-40.43-37.72-8.99-76.83-10.55-115.42-12.13-9.75-.39-20.97.56-30.3-2.37-6.35-1.98-10.61-4.03-17.33-3.71-21.06,1.05-42.2-1.05-62.9-4.86-38.61-7.06-75.46-22.12-110.55-39.41-70.14-34.52-134.72-79.4-201.15-120.34-64.06-39.45-130.97-72.75-201.98-97.58-31.88-11.13-64.04-8.3-94.59,6.13-13.1,6.2-25.31,17.09-36.61,26.1-13.73,10.94-26.48,23.09-38.4,35.98-21.86,23.68-39.66,51-52.46,80.61-5.49,12.69-10.23,24.54-9.47,38.45.73,13.5,5.02,26.54,10.61,38.74Zm74.65-10.11c-10.44-41.7,5.33-77.32,32.96-108.23,23.56-26.37,56.09-43.77,91.62-44.8,19.11-.54,39.18,4.81,57.64,9.33,19.77,4.86,39.06,11.52,57.96,19.11,19.03,7.64,37.48,17.31,56.37,25.44,19,8.18,36.77,18.56,54.49,29.18,66.05,39.57,124.26,90.67,193.98,124.12,31.97,15.33,65.72,26.59,100.43,33.64,36.08,7.33,73.41,9.26,110.02,12.48,58.69,5.12,117.55,11.52,173.24,31.96,47.7,17.5,91.58,46.31,132.81,76.85h3.1c-53.32-39.11-110.01-73.98-174.41-91.01-72.31-19.12-148.07-19-221.85-28.54-76.61-9.91-146.49-44.92-209.51-88.38-32.98-22.75-64.68-46.9-98.82-67.97-16.11-9.94-32.43-19.83-49.44-28.12-18.61-9.11-38.18-16.02-56.64-25.49-30.48-15.62-65.17-24.85-98.69-31.1-28.79-5.35-55.16-3.61-81.74,9.42-25.35,12.4-45.63,33.84-60.9,57.25-17.22,26.41-22.18,54.78-14.51,85.38.3,1.24,2.21.71,1.89-.51Zm11.76,33.13c6.47,10.72,13.45,21.12,20.62,31.37,14.03,20.05,29.44,39.09,45.33,57.66,25.41,29.74,52.48,58.01,78.82,86.92h2.7c-25.71-28.32-52.09-56-77.17-84.89-16.92-19.48-33.01-39.67-47.96-60.69-7.25-10.2-14.06-20.7-20.62-31.37-6.28-10.18-6.96-22.44-13.56-32.37-.7-1.05-2.41-.07-1.7,1,6.54,9.86,7.4,22.19,13.55,32.37Zm1695.06-113.16c11.94,20.56,35.06,51.73,61.74,38.84,20.12-9.74,22.9-33.69,17.94-53.15-4.83-18.94-21.22-44.92-42.21-47.76-35.5-4.78-40.99,34.87-37.6,61.57.17,1.25,2.12,1.25,1.98,0-1.51-11.79-1.95-23.29.93-34.93,4.27-17.21,22.95-31.55,40.67-23.15,16.6,7.86,27.93,25.29,33.57,42.24,5.98,17.87,3.96,38.7-11.77,50.71-25.76,19.65-51.95-15.36-63.55-35.38-.64-1.1-2.34-.1-1.71,1h0Zm-1594.15,96.44c-2.38-21.12,5.57-39.94,20.56-54.67,14.1-13.84,34.86-17.55,53.78-17.87,39.92-.66,81.01,17.26,115.51,35.67,67.7,36.08,121.69,92.29,187.99,130.3,68.15,39.09,150.24,45.19,226.72,52.71,43.77,4.3,87.55,8.96,130.46,19.02,26.44,6.18,50.68,15.43,73.88,27.51h4.27c-21.41-11.48-43.65-20.53-68.11-27.05-39.21-10.48-79.77-15.26-120.03-19.44-83.32-8.64-171.25-12.86-246.19-54.47-32.51-18.04-61.39-42.09-90.81-64.65-31.08-23.83-62.79-46.83-97.17-65.65-48.88-26.76-136.5-62.57-179.96-8.35-10.57,13.18-14.74,30.32-12.86,46.93.13,1.27,2.11,1.27,1.96,0Zm59.57,108.96c15.05,18.48,30.17,36.99,46.47,54.37,9.3,9.89,18.87,19.48,28.18,29.34h2.81c-8.6-9.23-17.48-18.19-26.24-27.27-15.57-16.09-29.71-33.45-43.95-50.71-28.54-34.62-55.13-70.9-66.87-114.94-.33-1.25-2.22-.73-1.89.51,10.97,41.16,34.92,76.1,61.5,108.69Zm-788.45,24.83c54.54,12.77,109.63,19.14,165.42,22.95,57.46,3.93,115.14.42,172.57,5.08,29.71,2.42,58.87,7.77,87.49,16.16,12.1,3.54,23.57,8.84,34.82,14.7h3.95c-8.33-4.4-16.76-8.55-25.5-11.99-25.83-10.21-53.6-15.31-81.04-18.8-57.21-7.33-115.2-4.01-172.69-6.13-58.84-2.15-117.42-9.18-174.96-21.73-28.73-6.27-57.12-14.06-85.23-22.73-9.07-2.81-18.08-5.78-27.07-8.81v1.29c7.35,2.74,14.66,5.66,21.85,7.96,26.5,8.4,53.34,15.7,80.41,22.04Zm2844.3,58.89c16.84-21.31,34.4-42.02,53.44-61.28v-2.81c-20.02,20.07-38.36,41.77-55.96,64.09h2.51Zm43.07,0c3.42-4.78,6.86-9.52,10.38-14.23v-3.25c-4.37,5.74-8.59,11.59-12.82,17.48h2.44Zm-2906.31-32.42c47.25,13.33,94.1,22.93,143.09,26.59,49.47,3.71,99.15,4.03,148.72,5.42,4.88.15,9.78.27,14.67.42h40.25c-11.38-.81-22.84-1.3-34.36-1.73-51.25-1.93-102.57-2.05-153.79-5.06-52.49-3.05-102.56-12.13-153.19-26.17-24.32-6.76-48.44-14.38-73.01-20.14-5.2-1.22-10.43-2.32-15.68-3.34v2.15c3.49.69,6.99,1.34,10.48,2.08,24.59,5.13,48.67,12.99,72.83,19.8Zm21.64,30.52c1.99.66,3.97,1.27,5.95,1.91h7.62c-7.22-2.08-14.43-4.3-21.7-6.74-24.61-8.28-49.9-13.09-75.12-19.14-7.23-1.73-14.45-3.42-21.69-5.03v2.02c8.64,1.93,17.26,3.98,25.89,6.03,26.72,6.42,52.99,12.14,79.07,20.95Z"/>
    </clipPath>
  </defs>
  <g class="cls-2">
    <image width="2000" height="1333" transform="scale(1.5 1.13)" xlink:href="Artboard 31.png"/>
  </g>
</svg>